<?xml version="1.0" encoding="utf-8"?>
<!-- Generator: Adobe Illustrator 26.0.1, SVG Export Plug-In . SVG Version: 6.00 Build 0)  -->
<svg version="1.1" id="图层_1" xmlns="http://www.w3.org/2000/svg" xmlns:xlink="http://www.w3.org/1999/xlink" x="0px" y="0px"
	 viewBox="0 0 207.4 198.4" style="enable-background:new 0 0 207.4 198.4;" xml:space="preserve">
<style type="text/css">
	.st0{fill:#FFFFFF;}
	.st1{clip-path:url(#SVGID_00000097502108343168623950000001924906374820111545_);}
	.st2{fill:#FFFEFE;}
	.st3{fill:#FFFEFD;}
	.st4{fill:#FFFDFC;}
	.st5{fill:#FFFCFB;}
	.st6{fill:#FFFCFA;}
	.st7{fill:#FFFBF9;}
	.st8{fill:#FFFAF8;}
	.st9{fill:#FFFAF7;}
	.st10{fill:#FFF9F6;}
	.st11{fill:#FEF8F4;}
	.st12{fill:#FEF7F3;}
	.st13{fill:#FEF7F2;}
	.st14{fill:#FEF6F1;}
	.st15{fill:#FEF5F0;}
	.st16{fill:#FEF4EF;}
	.st17{fill:#FEF4EE;}
	.st18{fill:#FEF3EC;}
	.st19{fill:#FEF2EB;}
	.st20{fill:#FEF2EA;}
	.st21{fill:#FEF1E9;}
	.st22{fill:#FEF0E8;}
	.st23{fill:#FEEFE7;}
	.st24{fill:#FDEFE6;}
	.st25{fill:#FDEEE5;}
	.st26{fill:#FDEDE4;}
	.st27{fill:#FDECE3;}
	.st28{fill:#FDEBE1;}
	.st29{fill:#FDEBE0;}
	.st30{fill:#FDEADF;}
	.st31{fill:#FDE9DE;}
	.st32{fill:#FDE9DD;}
	.st33{fill:#FDE8DC;}
	.st34{fill:#FCE7DB;}
	.st35{fill:#FCE6DA;}
	.st36{fill:#FCE5D9;}
	.st37{fill:#FCE5D8;}
	.st38{fill:#FCE4D6;}
	.st39{fill:#FCE3D5;}
	.st40{fill:#FCE2D4;}
	.st41{fill:#FCE1D3;}
	.st42{fill:#FCE1D2;}
	.st43{fill:#FBE0D1;}
	.st44{fill:#FBDFD0;}
	.st45{fill:#FBDECF;}
	.st46{fill:#FBDECE;}
	.st47{fill:#FBDDCC;}
	.st48{fill:#FBDCCB;}
	.st49{fill:#FBDBCA;}
	.st50{fill:#FBDAC9;}
	.st51{fill:#FBDAC8;}
	.st52{fill:#FBD9C7;}
	.st53{fill:#FBD8C6;}
	.st54{fill:#FAD7C5;}
	.st55{fill:#FAD6C3;}
	.st56{fill:#FAD6C2;}
	.st57{fill:#FAD5C1;}
	.st58{fill:#FAD4C0;}
	.st59{fill:#FAD3BF;}
	.st60{fill:#FAD3BE;}
	.st61{fill:#FAD2BD;}
	.st62{fill:#FAD1BC;}
	.st63{fill:#FAD0BB;}
	.st64{fill:#F9CFBA;}
	.st65{fill:#F9CFB8;}
	.st66{fill:#F9CEB7;}
	.st67{fill:#F9CDB6;}
	.st68{fill:#F9CCB5;}
	.st69{fill:#F9CBB4;}
	.st70{fill:#F9CAB3;}
	.st71{fill:#F9CAB2;}
	.st72{fill:#F8C9B1;}
	.st73{fill:#F8C8B0;}
	.st74{fill:#F8C7AF;}
	.st75{fill:#F8C6AE;}
	.st76{fill:#F8C6AC;}
	.st77{fill:#F8C5AB;}
	.st78{fill:#F8C4AA;}
	.st79{fill:#F8C3A9;}
	.st80{fill:#F8C2A8;}
	.st81{fill:#F7C2A7;}
	.st82{fill:#F7C1A6;}
	.st83{fill:#F7C0A5;}
	.st84{fill:#F7BFA4;}
	.st85{fill:#F7BEA3;}
	.st86{fill:#F7BEA2;}
	.st87{fill:#F7BDA0;}
	.st88{fill:#F7BC9F;}
	.st89{clip-path:url(#SVGID_00000097475808393698497820000006420531419699381676_);}
	.st90{fill:none;stroke:#9A7462;stroke-width:0.75;}
	.st91{clip-path:url(#SVGID_00000068665827520313998380000001440367059887115404_);}
	.st92{clip-path:url(#SVGID_00000072993141804688841050000017950453343507755697_);}
	.st93{clip-path:url(#SVGID_00000098899374498605119820000016162271610995397287_);}
	.st94{clip-path:url(#SVGID_00000041261664876676083810000002435925538717956253_);}
	.st95{clip-path:url(#SVGID_00000129185516402013677060000008395272815266403471_);}
	.st96{clip-path:url(#SVGID_00000071524527659592215800000013577136096905126038_);}
	.st97{fill:#94252A;}
	.st98{fill:none;stroke:#5D070C;stroke-width:0.5;}
	.st99{fill:#231815;}
	.st100{font-family:'Helvetica';}
	.st101{font-size:8px;}
	.st102{clip-path:url(#SVGID_00000079447681492858159670000009211264243446951586_);}
	.st103{clip-path:url(#SVGID_00000007416231309043299940000014675727543482261673_);}
	.st104{fill:none;stroke:#231815;stroke-width:0.5;}
	.st105{fill:#E1C9E1;}
	.st106{fill:none;stroke:#8D7E8E;stroke-width:0.5;}
	.st107{fill:none;stroke:#8D7E8E;stroke-width:0.31;}
</style>
<rect class="st0" width="211.1" height="198.8"/>
<g>
	<defs>
		<path id="SVGID_1_" d="M110.3,23.1c-6.8,13-9.7,11.1-12,5.5c-2.2-4.8-5.7-5.4-9.9-4.2c-2.8,4.5-7.9,9.3-13.8,6.7
			c-2.9-1.1-6.1-0.8-8.7,0.8c-1.6,0.8-2.9,2-3.7,3.6c-1.1,2.1-2.5,4-4.2,5.6c-2.2,1.7-4.6,3.3-7,4.8c-4.8,2.5-7.9,7.3-11,11.5
			l131.1,3.1c-0.3-3.4,0-6.7-2.2-9.5c-6.2-7.9-14.6-11.2-22.5-17.1c-1.7-1.4-3.9-1.7-6.2-2.2c-1.9-0.9-3.6-1.9-5.3-3.1
			c-0.9-0.1-1.9-0.1-2.8,0c-2.2,0.6-3.4,2.5-5.6,2.8c-2,0.3-4-0.5-5.3-2c-0.8-1.4,0.9-5.1,0-6.3s-3.4-1.8-5.8-1.8
			S111,21.9,110.3,23.1"/>
	</defs>
	<clipPath id="SVGID_00000162346802008975438930000005420299098344322464_">
		<use xlink:href="#SVGID_1_"  style="overflow:visible;"/>
	</clipPath>
	<g style="clip-path:url(#SVGID_00000162346802008975438930000005420299098344322464_);">
		<rect x="40.1" y="56.5" class="st2" width="131.1" height="4"/>
		<rect x="40.1" y="56" class="st3" width="131.1" height="0.5"/>
		<rect x="40.1" y="55.5" class="st4" width="131.1" height="0.5"/>
		<rect x="40.1" y="55.3" class="st5" width="131.1" height="0.2"/>
		<rect x="40.1" y="55" class="st6" width="131.1" height="0.2"/>
		<rect x="40.1" y="54.5" class="st7" width="131.1" height="0.5"/>
		<rect x="40.1" y="54.1" class="st8" width="131.1" height="0.5"/>
		<rect x="40.1" y="53.8" class="st9" width="131.1" height="0.2"/>
		<rect x="40.1" y="53.6" class="st10" width="131.1" height="0.2"/>
		<rect x="40.1" y="53.1" class="st11" width="131.1" height="0.5"/>
		<rect x="40.1" y="52.8" class="st12" width="131.1" height="0.2"/>
		<rect x="40.1" y="52.6" class="st13" width="131.1" height="0.2"/>
		<rect x="40.1" y="52.1" class="st14" width="131.1" height="0.5"/>
		<rect x="40.1" y="51.6" class="st15" width="131.1" height="0.5"/>
		<rect x="40.1" y="51.4" class="st16" width="131.1" height="0.2"/>
		<rect x="40.1" y="51.1" class="st17" width="131.1" height="0.2"/>
		<rect x="40.1" y="50.6" class="st18" width="131.1" height="0.5"/>
		<rect x="40.1" y="50.2" class="st19" width="131.1" height="0.5"/>
		<rect x="40.1" y="49.9" class="st20" width="131.1" height="0.2"/>
		<rect x="40.1" y="49.7" class="st21" width="131.1" height="0.2"/>
		<rect x="40.1" y="49.2" class="st22" width="131.1" height="0.5"/>
		<rect x="40.1" y="48.9" class="st23" width="131.1" height="0.2"/>
		<rect x="40.1" y="48.6" class="st24" width="131.1" height="0.4"/>
		<rect x="40.1" y="48.1" class="st25" width="131.1" height="0.5"/>
		<rect x="40.1" y="47.6" class="st26" width="131.1" height="0.5"/>
		<rect x="40.1" y="47.3" class="st27" width="131.1" height="0.2"/>
		<rect x="40.1" y="47.1" class="st28" width="131.1" height="0.2"/>
		<rect x="40.1" y="46.6" class="st29" width="131.1" height="0.5"/>
		<rect x="40.1" y="46.1" class="st30" width="131.1" height="0.5"/>
		<rect x="40.1" y="45.9" class="st31" width="131.1" height="0.2"/>
		<rect x="40.1" y="45.6" class="st32" width="131.1" height="0.2"/>
		<rect x="40.1" y="45.1" class="st33" width="131.1" height="0.5"/>
		<rect x="40.1" y="44.9" class="st34" width="131.1" height="0.2"/>
		<rect x="40.1" y="44.7" class="st35" width="131.1" height="0.2"/>
		<rect x="40.1" y="44.2" class="st36" width="131.1" height="0.5"/>
		<rect x="40.1" y="43.7" class="st37" width="131.1" height="0.5"/>
		<rect x="40.1" y="43.4" class="st38" width="131.1" height="0.2"/>
		<rect x="40.1" y="43.2" class="st39" width="131.1" height="0.2"/>
		<rect x="40.1" y="42.7" class="st40" width="131.1" height="0.5"/>
		<rect x="40.1" y="42.2" class="st41" width="131.1" height="0.5"/>
		<rect x="40.1" y="42" class="st42" width="131.1" height="0.2"/>
		<rect x="40.1" y="41.7" class="st43" width="131.1" height="0.2"/>
		<rect x="40.1" y="41.2" class="st44" width="131.1" height="0.5"/>
		<rect x="40.1" y="40.9" class="st45" width="131.1" height="0.4"/>
		<rect x="40.1" y="40.6" class="st46" width="131.1" height="0.2"/>
		<rect x="40.1" y="40.1" class="st47" width="131.1" height="0.5"/>
		<rect x="40.1" y="39.6" class="st48" width="131.1" height="0.5"/>
		<rect x="40.1" y="39.4" class="st49" width="131.1" height="0.2"/>
		<rect x="40.1" y="39.2" class="st50" width="131.1" height="0.2"/>
		<rect x="40.1" y="38.7" class="st51" width="131.1" height="0.5"/>
		<rect x="40.1" y="38.2" class="st52" width="131.1" height="0.5"/>
		<rect x="40.1" y="37.9" class="st53" width="131.1" height="0.2"/>
		<rect x="40.1" y="37.7" class="st54" width="131.1" height="0.2"/>
		<rect x="40.1" y="37.2" class="st55" width="131.1" height="0.5"/>
		<rect x="40.1" y="37" class="st56" width="131.1" height="0.2"/>
		<rect x="40.1" y="36.7" class="st57" width="131.1" height="0.2"/>
		<rect x="40.1" y="36.2" class="st58" width="131.1" height="0.5"/>
		<rect x="40.1" y="35.7" class="st59" width="131.1" height="0.5"/>
		<rect x="40.1" y="35.5" class="st60" width="131.1" height="0.2"/>
		<rect x="40.1" y="35.2" class="st61" width="131.1" height="0.2"/>
		<rect x="40.1" y="34.8" class="st62" width="131.1" height="0.5"/>
		<rect x="40.1" y="34.3" class="st63" width="131.1" height="0.5"/>
		<rect x="40.1" y="34" class="st64" width="131.1" height="0.2"/>
		<rect x="40.1" y="33.8" class="st65" width="131.1" height="0.2"/>
		<rect x="40.1" y="33.3" class="st66" width="131.1" height="0.5"/>
		<rect x="40.1" y="32.9" class="st67" width="131.1" height="0.4"/>
		<rect x="40.1" y="32.7" class="st68" width="131.1" height="0.2"/>
		<rect x="40.1" y="32.2" class="st69" width="131.1" height="0.5"/>
		<rect x="40.1" y="31.7" class="st70" width="131.1" height="0.5"/>
		<rect x="40.1" y="31.5" class="st71" width="131.1" height="0.2"/>
		<rect x="40.1" y="31.2" class="st72" width="131.1" height="0.2"/>
		<rect x="40.1" y="30.7" class="st73" width="131.1" height="0.5"/>
		<rect x="40.1" y="30.2" class="st74" width="131.1" height="0.5"/>
		<rect x="40.1" y="30" class="st75" width="131.1" height="0.2"/>
		<rect x="40.1" y="29.8" class="st76" width="131.1" height="0.2"/>
		<rect x="40.1" y="29.3" class="st77" width="131.1" height="0.5"/>
		<rect x="40.1" y="29" class="st78" width="131.1" height="0.2"/>
		<rect x="40.1" y="28.8" class="st79" width="131.1" height="0.2"/>
		<rect x="40.1" y="28.3" class="st80" width="131.1" height="0.5"/>
		<rect x="40.1" y="27.8" class="st81" width="131.1" height="0.5"/>
		<rect x="40.1" y="27.5" class="st82" width="131.1" height="0.2"/>
		<rect x="40.1" y="27.3" class="st83" width="131.1" height="0.2"/>
		<rect x="40.1" y="26.8" class="st84" width="131.1" height="0.5"/>
		<rect x="40.1" y="26.3" class="st85" width="131.1" height="0.5"/>
		<rect x="40.1" y="26.1" class="st86" width="131.1" height="0.2"/>
		<rect x="40.1" y="25.8" class="st87" width="131.1" height="0.2"/>
		<rect x="40.1" y="20.6" class="st88" width="131.1" height="5.2"/>
	</g>
</g>
<g>
	<defs>
		<rect id="SVGID_00000154405381885451623530000013240395479831858071_" y="0.2" width="211.1" height="198.8"/>
	</defs>
	<clipPath id="SVGID_00000046319501089293973030000010946679186545244605_">
		<use xlink:href="#SVGID_00000154405381885451623530000013240395479831858071_"  style="overflow:visible;"/>
	</clipPath>
	<g style="clip-path:url(#SVGID_00000046319501089293973030000010946679186545244605_);">
		<path class="st90" d="M40.1,57.4c3.1-4.2,6.2-9,11-11.5c2.4-1.4,4.8-3,7-4.8c1.7-1.6,3.1-3.5,4.2-5.6c0.8-1.6,2-2.9,3.7-3.6
			c2.6-1.6,5.8-2,8.7-0.8c5.9,2.5,11-2.2,13.8-6.7c4.2-1.1,7.7-0.5,9.9,4.2c2.3,5.7,5.2,7.5,12-5.5c1.3-2.5,9.2-2.2,10.9,0
			c0.8,1.1-0.8,4.9,0,6.3c1.3,1.5,3.3,2.3,5.3,2c2.2-0.3,3.4-2.2,5.6-2.8c0.9-0.1,1.9-0.1,2.8,0c1.7,1.2,3.5,2.2,5.3,3.1
			c2.2,0.6,4.5,0.8,6.2,2.2c7.8,5.9,16.3,9.2,22.5,17.1c2.2,2.8,2,6.2,2.2,9.5"/>
	</g>
</g>
<g>
	<defs>
		<path id="SVGID_00000137125457809001891390000004270695091799562637_" d="M105.2,55.2c-3.4,1.4,6.5,20.1,4.3,24.6
			s-12.6,4-16.3,0.2c-2.9-2.9,4.1-14.4,4-19.8c0-1.5,0.9-5.5-3.3-5C84,59.8,79.3,66,74.6,70.2c-1,0.9-2.6,0.7-4.2,0.5
			s-3.2-0.5-4.6,0.4c-1.6,0.8-2.9,2-3.7,3.7c-1.1,2.1-2.5,4-4.2,5.6c-2.2,1.7-4.6,3.3-7,4.8c-4.8,2.5-7.9,7.3-11,11.5l131.1,3.1
			c-0.3-3.4,0-6.7-2.2-9.6c-6.2-7.9-14.6-11.2-22.5-17.1c-1.7-1.4-3.9-1.7-6.2-2.2c-1.9-0.9-3.6-1.9-5.3-3.1c-0.9-0.1-1.9-0.1-2.8,0
			c-2.2,0.6-3.4,2.5-5.6,2.8c-2,0.3-4-0.5-5.3-2c-0.8-1.4,0.3-3.4-0.6-4.5c-1.6-2.1-11.5-8.9-14.9-8.9
			C105.6,55.1,105.4,55.1,105.2,55.2"/>
	</defs>
	<clipPath id="SVGID_00000030448945442906781260000008338831012167464863_">
		<use xlink:href="#SVGID_00000137125457809001891390000004270695091799562637_"  style="overflow:visible;"/>
	</clipPath>
	<g style="clip-path:url(#SVGID_00000030448945442906781260000008338831012167464863_);">
		<rect x="40.1" y="97.1" class="st2" width="131.1" height="2.6"/>
		<rect x="40.1" y="96.5" class="st3" width="131.1" height="0.6"/>
		<rect x="40.1" y="95.9" class="st4" width="131.1" height="0.6"/>
		<rect x="40.1" y="95.6" class="st5" width="131.1" height="0.3"/>
		<rect x="40.1" y="95.3" class="st6" width="131.1" height="0.3"/>
		<rect x="40.1" y="94.7" class="st7" width="131.1" height="0.6"/>
		<rect x="40.1" y="94.1" class="st8" width="131.1" height="0.6"/>
		<rect x="40.1" y="93.8" class="st9" width="131.1" height="0.3"/>
		<rect x="40.1" y="93.5" class="st10" width="131.1" height="0.3"/>
		<rect x="40.1" y="92.9" class="st11" width="131.1" height="0.6"/>
		<rect x="40.1" y="92.6" class="st12" width="131.1" height="0.3"/>
		<rect x="40.1" y="92.3" class="st13" width="131.1" height="0.3"/>
		<rect x="40.1" y="91.7" class="st14" width="131.1" height="0.6"/>
		<rect x="40.1" y="91.1" class="st15" width="131.1" height="0.6"/>
		<rect x="40.1" y="90.8" class="st16" width="131.1" height="0.3"/>
		<rect x="40.1" y="90.5" class="st17" width="131.1" height="0.3"/>
		<rect x="40.1" y="89.9" class="st18" width="131.1" height="0.6"/>
		<rect x="40.1" y="89.3" class="st19" width="131.1" height="0.6"/>
		<rect x="40.1" y="89" class="st20" width="131.1" height="0.3"/>
		<rect x="40.1" y="88.7" class="st21" width="131.1" height="0.3"/>
		<rect x="40.1" y="88.1" class="st22" width="131.1" height="0.6"/>
		<rect x="40.1" y="87.8" class="st23" width="131.1" height="0.3"/>
		<rect x="40.1" y="87.3" class="st24" width="131.1" height="0.4"/>
		<rect x="40.1" y="86.7" class="st25" width="131.1" height="0.6"/>
		<rect x="40.1" y="86.1" class="st26" width="131.1" height="0.6"/>
		<rect x="40.1" y="85.8" class="st27" width="131.1" height="0.3"/>
		<rect x="40.1" y="85.5" class="st28" width="131.1" height="0.3"/>
		<rect x="40.1" y="84.9" class="st29" width="131.1" height="0.6"/>
		<rect x="40.1" y="84.3" class="st30" width="131.1" height="0.6"/>
		<rect x="40.1" y="84" class="st31" width="131.1" height="0.3"/>
		<rect x="40.1" y="83.7" class="st32" width="131.1" height="0.3"/>
		<rect x="40.1" y="83.1" class="st33" width="131.1" height="0.6"/>
		<rect x="40.1" y="82.8" class="st34" width="131.1" height="0.3"/>
		<rect x="40.1" y="82.5" class="st35" width="131.1" height="0.3"/>
		<rect x="40.1" y="81.9" class="st36" width="131.1" height="0.6"/>
		<rect x="40.1" y="81.3" class="st37" width="131.1" height="0.6"/>
		<rect x="40.1" y="81" class="st38" width="131.1" height="0.3"/>
		<rect x="40.1" y="80.7" class="st39" width="131.1" height="0.3"/>
		<rect x="40.1" y="80.1" class="st40" width="131.1" height="0.6"/>
		<rect x="40.1" y="79.5" class="st41" width="131.1" height="0.6"/>
		<rect x="40.1" y="79.2" class="st42" width="131.1" height="0.3"/>
		<rect x="40.1" y="78.9" class="st43" width="131.1" height="0.3"/>
		<rect x="40.1" y="78.2" class="st44" width="131.1" height="0.6"/>
		<rect x="40.1" y="77.8" class="st45" width="131.1" height="0.4"/>
		<rect x="40.1" y="77.5" class="st46" width="131.1" height="0.3"/>
		<rect x="40.1" y="76.9" class="st47" width="131.1" height="0.6"/>
		<rect x="40.1" y="76.3" class="st48" width="131.1" height="0.6"/>
		<rect x="40.1" y="76" class="st49" width="131.1" height="0.3"/>
		<rect x="40.1" y="75.7" class="st50" width="131.1" height="0.3"/>
		<rect x="40.1" y="75.1" class="st51" width="131.1" height="0.6"/>
		<rect x="40.1" y="74.5" class="st52" width="131.1" height="0.6"/>
		<rect x="40.1" y="74.2" class="st53" width="131.1" height="0.3"/>
		<rect x="40.1" y="73.9" class="st54" width="131.1" height="0.3"/>
		<rect x="40.1" y="73.3" class="st55" width="131.1" height="0.6"/>
		<rect x="40.1" y="73" class="st56" width="131.1" height="0.3"/>
		<rect x="40.1" y="72.7" class="st57" width="131.1" height="0.3"/>
		<rect x="40.1" y="72.1" class="st58" width="131.1" height="0.6"/>
		<rect x="40.1" y="71.5" class="st59" width="131.1" height="0.6"/>
		<rect x="40.1" y="71.2" class="st60" width="131.1" height="0.3"/>
		<rect x="40.1" y="70.9" class="st61" width="131.1" height="0.3"/>
		<rect x="40.1" y="70.3" class="st62" width="131.1" height="0.6"/>
		<rect x="40.1" y="69.7" class="st63" width="131.1" height="0.6"/>
		<rect x="40.1" y="69.4" class="st64" width="131.1" height="0.3"/>
		<rect x="40.1" y="69.1" class="st65" width="131.1" height="0.3"/>
		<rect x="40.1" y="68.4" class="st66" width="131.1" height="0.6"/>
		<rect x="40.1" y="68" class="st67" width="131.1" height="0.4"/>
		<rect x="40.1" y="67.7" class="st68" width="131.1" height="0.3"/>
		<rect x="40.1" y="67.1" class="st69" width="131.1" height="0.6"/>
		<rect x="40.1" y="66.5" class="st70" width="131.1" height="0.6"/>
		<rect x="40.1" y="66.2" class="st71" width="131.1" height="0.3"/>
		<rect x="40.1" y="65.9" class="st72" width="131.1" height="0.3"/>
		<rect x="40.1" y="65.3" class="st73" width="131.1" height="0.6"/>
		<rect x="40.1" y="64.7" class="st74" width="131.1" height="0.6"/>
		<rect x="40.1" y="64.4" class="st75" width="131.1" height="0.3"/>
		<rect x="40.1" y="64.1" class="st76" width="131.1" height="0.3"/>
		<rect x="40.1" y="63.5" class="st77" width="131.1" height="0.6"/>
		<rect x="40.1" y="63.2" class="st78" width="131.1" height="0.3"/>
		<rect x="40.1" y="62.9" class="st79" width="131.1" height="0.3"/>
		<rect x="40.1" y="62.3" class="st80" width="131.1" height="0.6"/>
		<rect x="40.1" y="61.7" class="st81" width="131.1" height="0.6"/>
		<rect x="40.1" y="61.4" class="st82" width="131.1" height="0.3"/>
		<rect x="40.1" y="61.1" class="st83" width="131.1" height="0.3"/>
		<rect x="40.1" y="60.5" class="st84" width="131.1" height="0.6"/>
		<rect x="40.1" y="59.9" class="st85" width="131.1" height="0.6"/>
		<rect x="40.1" y="59.6" class="st86" width="131.1" height="0.3"/>
		<rect x="40.1" y="59.3" class="st87" width="131.1" height="0.3"/>
		<rect x="40.1" y="54.1" class="st88" width="131.1" height="5.2"/>
	</g>
</g>
<g>
	<defs>
		<rect id="SVGID_00000097495267441065137680000002820671108076452538_" y="0.2" width="211.1" height="198.8"/>
	</defs>
	<clipPath id="SVGID_00000116915290828085198100000011282282080063290549_">
		<use xlink:href="#SVGID_00000097495267441065137680000002820671108076452538_"  style="overflow:visible;"/>
	</clipPath>
	<g style="clip-path:url(#SVGID_00000116915290828085198100000011282282080063290549_);">
		<path class="st90" d="M40.1,96.6c3.1-4.2,6.2-9,11-11.5c2.4-1.4,4.8-3,7-4.8c1.7-1.6,3.1-3.5,4.2-5.6c0.7-1.6,2-2.9,3.6-3.7
			c2.8-1.7,6.7,1,8.7-0.8c4.7-4.2,9.3-10.4,19.2-15c4.2-0.5,3.2,3.5,3.3,5c0.2,5.4-6.9,16.9-4,19.8c3.8,3.7,14.1,4.2,16.3-0.2
			s-7.6-23.2-4.3-24.6c2.5-1.1,13.8,6.5,15.5,8.8c0.8,1.1-0.3,3.1,0.6,4.5c1.3,1.5,3.3,2.3,5.3,2c2.2-0.3,3.4-2.2,5.6-2.8
			c0.9-0.1,1.9-0.1,2.8,0c1.7,1.2,3.5,2.2,5.3,3.1c2.2,0.6,4.5,0.8,6.2,2.2c7.9,5.9,16.3,9.3,22.5,17.1c2.2,2.8,2,6.2,2.2,9.6"/>
	</g>
</g>
<g>
	<defs>
		<path id="SVGID_00000101090919129371992110000004831841655822027662_" d="M74.6,114.7c-1,1-2.6,0.7-4.2,0.5s-3.2-0.5-4.5,0.4
			c-1.6,0.8-2.9,2-3.7,3.7c-1.1,2.1-2.5,4-4.2,5.6c-2.2,1.8-4.6,3.3-7,4.8c-4.8,2.5-7.9,7.3-11,11.5l131.1,3.1
			c-0.3-3.4,0-6.7-2.2-9.6c-6.2-7.9-14.6-11.2-22.5-17.1c-1.7-1.4-3.9-1.7-6.2-2.2c-1.9-0.9-3.7-1.9-5.3-3.1c-0.9-0.1-1.9-0.1-2.8,0
			c-2.2,0.6-3.4,2.5-5.6,2.8c-2,0.3-4-0.5-5.3-2c-0.8-1.4,0.3-3.4-0.6-4.5c-1.8-2.1-4.5-3.4-7.3-3.4c-0.9,0-1.8-0.1-2.7-0.1
			C97,105.1,80.2,109.4,74.6,114.7"/>
	</defs>
	<clipPath id="SVGID_00000014636009938221710550000010488340613701311626_">
		<use xlink:href="#SVGID_00000101090919129371992110000004831841655822027662_"  style="overflow:visible;"/>
	</clipPath>
	<g style="clip-path:url(#SVGID_00000014636009938221710550000010488340613701311626_);">
		<rect x="40.1" y="141.4" class="st2" width="131.1" height="2.8"/>
		<rect x="40.1" y="140.9" class="st3" width="131.1" height="0.5"/>
		<rect x="40.1" y="140.3" class="st4" width="131.1" height="0.5"/>
		<rect x="40.1" y="140.1" class="st5" width="131.1" height="0.3"/>
		<rect x="40.1" y="139.8" class="st6" width="131.1" height="0.3"/>
		<rect x="40.1" y="139.3" class="st7" width="131.1" height="0.5"/>
		<rect x="40.1" y="138.8" class="st8" width="131.1" height="0.5"/>
		<rect x="40.1" y="138.5" class="st9" width="131.1" height="0.3"/>
		<rect x="40.1" y="138.2" class="st10" width="131.1" height="0.3"/>
		<rect x="40.1" y="137.7" class="st11" width="131.1" height="0.5"/>
		<rect x="40.1" y="137.4" class="st12" width="131.1" height="0.3"/>
		<rect x="40.1" y="137.2" class="st13" width="131.1" height="0.3"/>
		<rect x="40.1" y="136.6" class="st14" width="131.1" height="0.5"/>
		<rect x="40.1" y="136.1" class="st15" width="131.1" height="0.5"/>
		<rect x="40.1" y="135.9" class="st16" width="131.1" height="0.3"/>
		<rect x="40.1" y="135.6" class="st17" width="131.1" height="0.3"/>
		<rect x="40.1" y="135.1" class="st18" width="131.1" height="0.5"/>
		<rect x="40.1" y="134.5" class="st19" width="131.1" height="0.5"/>
		<rect x="40.1" y="134.3" class="st20" width="131.1" height="0.3"/>
		<rect x="40.1" y="134" class="st21" width="131.1" height="0.3"/>
		<rect x="40.1" y="133.5" class="st22" width="131.1" height="0.5"/>
		<rect x="40.1" y="133.2" class="st23" width="131.1" height="0.3"/>
		<rect x="40.1" y="132.8" class="st24" width="131.1" height="0.4"/>
		<rect x="40.1" y="132.3" class="st25" width="131.1" height="0.5"/>
		<rect x="40.1" y="131.8" class="st26" width="131.1" height="0.5"/>
		<rect x="40.1" y="131.5" class="st27" width="131.1" height="0.3"/>
		<rect x="40.1" y="131.2" class="st28" width="131.1" height="0.3"/>
		<rect x="40.1" y="130.7" class="st29" width="131.1" height="0.5"/>
		<rect x="40.1" y="130.2" class="st30" width="131.1" height="0.5"/>
		<rect x="40.1" y="129.9" class="st31" width="131.1" height="0.3"/>
		<rect x="40.1" y="129.7" class="st32" width="131.1" height="0.3"/>
		<rect x="40.1" y="129.1" class="st33" width="131.1" height="0.5"/>
		<rect x="40.1" y="128.9" class="st34" width="131.1" height="0.3"/>
		<rect x="40.1" y="128.6" class="st35" width="131.1" height="0.3"/>
		<rect x="40.1" y="128.1" class="st36" width="131.1" height="0.5"/>
		<rect x="40.1" y="127.6" class="st37" width="131.1" height="0.5"/>
		<rect x="40.1" y="127.3" class="st38" width="131.1" height="0.3"/>
		<rect x="40.1" y="127" class="st39" width="131.1" height="0.3"/>
		<rect x="40.1" y="126.5" class="st40" width="131.1" height="0.5"/>
		<rect x="40.1" y="126" class="st41" width="131.1" height="0.5"/>
		<rect x="40.1" y="125.7" class="st42" width="131.1" height="0.3"/>
		<rect x="40.1" y="125.5" class="st43" width="131.1" height="0.3"/>
		<rect x="40.1" y="124.9" class="st44" width="131.1" height="0.5"/>
		<rect x="40.1" y="124.5" class="st45" width="131.1" height="0.4"/>
		<rect x="40.1" y="124.3" class="st46" width="131.1" height="0.3"/>
		<rect x="40.1" y="123.7" class="st47" width="131.1" height="0.5"/>
		<rect x="40.1" y="123.2" class="st48" width="131.1" height="0.5"/>
		<rect x="40.1" y="122.9" class="st49" width="131.1" height="0.3"/>
		<rect x="40.1" y="122.7" class="st50" width="131.1" height="0.3"/>
		<rect x="40.1" y="122.2" class="st51" width="131.1" height="0.5"/>
		<rect x="40.1" y="121.6" class="st52" width="131.1" height="0.5"/>
		<rect x="40.1" y="121.4" class="st53" width="131.1" height="0.3"/>
		<rect x="40.1" y="121.1" class="st54" width="131.1" height="0.3"/>
		<rect x="40.1" y="120.6" class="st55" width="131.1" height="0.5"/>
		<rect x="40.1" y="120.3" class="st56" width="131.1" height="0.3"/>
		<rect x="40.1" y="120.1" class="st57" width="131.1" height="0.3"/>
		<rect x="40.1" y="119.5" class="st58" width="131.1" height="0.5"/>
		<rect x="40.1" y="119" class="st59" width="131.1" height="0.5"/>
		<rect x="40.1" y="118.7" class="st60" width="131.1" height="0.3"/>
		<rect x="40.1" y="118.5" class="st61" width="131.1" height="0.3"/>
		<rect x="40.1" y="117.9" class="st62" width="131.1" height="0.5"/>
		<rect x="40.1" y="117.4" class="st63" width="131.1" height="0.5"/>
		<rect x="40.1" y="117.2" class="st64" width="131.1" height="0.3"/>
		<rect x="40.1" y="116.9" class="st65" width="131.1" height="0.3"/>
		<rect x="40.1" y="116.4" class="st66" width="131.1" height="0.5"/>
		<rect x="40.1" y="116" class="st67" width="131.1" height="0.4"/>
		<rect x="40.1" y="115.7" class="st68" width="131.1" height="0.3"/>
		<rect x="40.1" y="115.2" class="st69" width="131.1" height="0.5"/>
		<rect x="40.1" y="114.7" class="st70" width="131.1" height="0.5"/>
		<rect x="40.1" y="114.4" class="st71" width="131.1" height="0.3"/>
		<rect x="40.1" y="114.1" class="st72" width="131.1" height="0.3"/>
		<rect x="40.1" y="113.6" class="st73" width="131.1" height="0.5"/>
		<rect x="40.1" y="113.1" class="st74" width="131.1" height="0.5"/>
		<rect x="40.1" y="112.8" class="st75" width="131.1" height="0.3"/>
		<rect x="40.1" y="112.6" class="st76" width="131.1" height="0.3"/>
		<rect x="40.1" y="112" class="st77" width="131.1" height="0.5"/>
		<rect x="40.1" y="111.8" class="st78" width="131.1" height="0.3"/>
		<rect x="40.1" y="111.5" class="st79" width="131.1" height="0.3"/>
		<rect x="40.1" y="111" class="st80" width="131.1" height="0.5"/>
		<rect x="40.1" y="110.4" class="st81" width="131.1" height="0.5"/>
		<rect x="40.1" y="110.2" class="st82" width="131.1" height="0.3"/>
		<rect x="40.1" y="109.9" class="st83" width="131.1" height="0.3"/>
		<rect x="40.1" y="109.4" class="st84" width="131.1" height="0.5"/>
		<rect x="40.1" y="108.9" class="st85" width="131.1" height="0.5"/>
		<rect x="40.1" y="108.6" class="st86" width="131.1" height="0.3"/>
		<rect x="40.1" y="108.3" class="st87" width="131.1" height="0.3"/>
		<rect x="40.1" y="104.5" class="st88" width="131.1" height="3.8"/>
	</g>
</g>
<g>
	<defs>
		<rect id="SVGID_00000050647838798349723980000000494157881617122985_" y="0.2" width="211.1" height="198.8"/>
	</defs>
	<clipPath id="SVGID_00000147201014095866880050000008984937733411855793_">
		<use xlink:href="#SVGID_00000050647838798349723980000000494157881617122985_"  style="overflow:visible;"/>
	</clipPath>
	<g style="clip-path:url(#SVGID_00000147201014095866880050000008984937733411855793_);">
		<path class="st90" d="M40.1,141.1c3.1-4.2,6.2-9,11-11.5c2.4-1.4,4.8-3,7-4.8c1.7-1.6,3.1-3.5,4.2-5.6c0.8-1.6,2-2.9,3.7-3.7
			c2.8-1.7,6.7,1,8.7-0.8c6-5.6,24.7-10.2,38.8-9.6c2.8,0,5.5,1.2,7.3,3.4c0.8,1.1-0.3,3.1,0.6,4.5c1.3,1.5,3.3,2.3,5.3,2
			c2.2-0.3,3.4-2.2,5.6-2.8c0.9-0.1,1.9-0.1,2.8,0c1.7,1.2,3.5,2.2,5.3,3.1c2.2,0.6,4.5,0.8,6.2,2.2c7.9,5.9,16.3,9.3,22.5,17.1
			c2.2,2.8,2,6.2,2.2,9.6"/>
	</g>
</g>
<g>
	<defs>
		<path id="SVGID_00000028307301192189490890000012380196959651165070_" d="M74.6,158c-1,1-2.6,0.7-4.2,0.5s-3.2-0.5-4.5,0.4
			c-1.6,0.8-2.9,2.1-3.7,3.7c-1.1,2.1-2.5,4-4.2,5.6c-2.2,1.8-4.6,3.3-7,4.8c-4.8,2.5-7.9,7.3-11,11.5l131.1,3.1
			c-0.3-3.4,0-6.7-2.2-9.6c-6.2-7.9-14.6-11.2-22.5-17.1c-1.7-1.4-3.9-1.7-6.2-2.2c-1.9-0.9-3.6-1.9-5.3-3.1c-0.9-0.1-1.9-0.1-2.8,0
			c-2.2,0.6-3.4,2.5-5.6,2.8c-2,0.2-4-0.5-5.3-2c-0.8-1.4,0.3-3.4-0.6-4.5c-1.8-2.2-4.5-3.4-7.3-3.4c-0.9,0-1.8-0.1-2.7-0.1
			C97,148.4,80.3,152.7,74.6,158"/>
	</defs>
	<clipPath id="SVGID_00000074416133188786608400000004736890190034121864_">
		<use xlink:href="#SVGID_00000028307301192189490890000012380196959651165070_"  style="overflow:visible;"/>
	</clipPath>
	<g style="clip-path:url(#SVGID_00000074416133188786608400000004736890190034121864_);">
		<rect x="40.1" y="187.1" class="st3" width="131.1" height="0.4"/>
		<rect x="40.1" y="186.5" class="st4" width="131.1" height="0.6"/>
		<rect x="40.1" y="186.2" class="st5" width="131.1" height="0.3"/>
		<rect x="40.1" y="185.9" class="st6" width="131.1" height="0.3"/>
		<rect x="40.1" y="185.4" class="st7" width="131.1" height="0.6"/>
		<rect x="40.1" y="184.8" class="st8" width="131.1" height="0.6"/>
		<rect x="40.1" y="184.5" class="st9" width="131.1" height="0.3"/>
		<rect x="40.1" y="184.2" class="st10" width="131.1" height="0.3"/>
		<rect x="40.1" y="183.6" class="st11" width="131.1" height="0.6"/>
		<rect x="40.1" y="183.4" class="st12" width="131.1" height="0.3"/>
		<rect x="40.1" y="183.1" class="st13" width="131.1" height="0.3"/>
		<rect x="40.1" y="182.5" class="st14" width="131.1" height="0.6"/>
		<rect x="40.1" y="181.9" class="st15" width="131.1" height="0.6"/>
		<rect x="40.1" y="181.6" class="st16" width="131.1" height="0.3"/>
		<rect x="40.1" y="181.3" class="st17" width="131.1" height="0.3"/>
		<rect x="40.1" y="180.8" class="st18" width="131.1" height="0.6"/>
		<rect x="40.1" y="180.2" class="st19" width="131.1" height="0.6"/>
		<rect x="40.1" y="179.9" class="st20" width="131.1" height="0.3"/>
		<rect x="40.1" y="179.6" class="st21" width="131.1" height="0.3"/>
		<rect x="40.1" y="179" class="st22" width="131.1" height="0.6"/>
		<rect x="40.1" y="178.7" class="st23" width="131.1" height="0.3"/>
		<rect x="40.1" y="178.3" class="st24" width="131.1" height="0.4"/>
		<rect x="40.1" y="177.7" class="st25" width="131.1" height="0.6"/>
		<rect x="40.1" y="177.1" class="st26" width="131.1" height="0.6"/>
		<rect x="40.1" y="176.9" class="st27" width="131.1" height="0.3"/>
		<rect x="40.1" y="176.6" class="st28" width="131.1" height="0.3"/>
		<rect x="40.1" y="176" class="st29" width="131.1" height="0.6"/>
		<rect x="40.1" y="175.4" class="st30" width="131.1" height="0.6"/>
		<rect x="40.1" y="175.1" class="st31" width="131.1" height="0.3"/>
		<rect x="40.1" y="174.8" class="st32" width="131.1" height="0.3"/>
		<rect x="40.1" y="174.3" class="st33" width="131.1" height="0.6"/>
		<rect x="40.1" y="174" class="st34" width="131.1" height="0.3"/>
		<rect x="40.1" y="173.7" class="st35" width="131.1" height="0.3"/>
		<rect x="40.1" y="173.1" class="st36" width="131.1" height="0.6"/>
		<rect x="40.1" y="172.5" class="st37" width="131.1" height="0.6"/>
		<rect x="40.1" y="172.2" class="st38" width="131.1" height="0.3"/>
		<rect x="40.1" y="171.9" class="st39" width="131.1" height="0.3"/>
		<rect x="40.1" y="171.4" class="st40" width="131.1" height="0.6"/>
		<rect x="40.1" y="170.8" class="st41" width="131.1" height="0.6"/>
		<rect x="40.1" y="170.5" class="st42" width="131.1" height="0.3"/>
		<rect x="40.1" y="170.2" class="st43" width="131.1" height="0.3"/>
		<rect x="40.1" y="169.6" class="st44" width="131.1" height="0.6"/>
		<rect x="40.1" y="169.2" class="st45" width="131.1" height="0.4"/>
		<rect x="40.1" y="168.9" class="st46" width="131.1" height="0.3"/>
		<rect x="40.1" y="168.3" class="st47" width="131.1" height="0.6"/>
		<rect x="40.1" y="167.8" class="st48" width="131.1" height="0.6"/>
		<rect x="40.1" y="167.5" class="st49" width="131.1" height="0.3"/>
		<rect x="40.1" y="167.2" class="st50" width="131.1" height="0.3"/>
		<rect x="40.1" y="166.6" class="st51" width="131.1" height="0.6"/>
		<rect x="40.1" y="166" class="st52" width="131.1" height="0.6"/>
		<rect x="40.1" y="165.7" class="st53" width="131.1" height="0.3"/>
		<rect x="40.1" y="165.4" class="st54" width="131.1" height="0.3"/>
		<rect x="40.1" y="164.9" class="st55" width="131.1" height="0.6"/>
		<rect x="40.1" y="164.6" class="st56" width="131.1" height="0.3"/>
		<rect x="40.1" y="164.3" class="st57" width="131.1" height="0.3"/>
		<rect x="40.1" y="163.7" class="st58" width="131.1" height="0.6"/>
		<rect x="40.1" y="163.1" class="st59" width="131.1" height="0.6"/>
		<rect x="40.1" y="162.9" class="st60" width="131.1" height="0.3"/>
		<rect x="40.1" y="162.6" class="st61" width="131.1" height="0.3"/>
		<rect x="40.1" y="162" class="st62" width="131.1" height="0.6"/>
		<rect x="40.1" y="161.4" class="st63" width="131.1" height="0.6"/>
		<rect x="40.1" y="161.1" class="st64" width="131.1" height="0.3"/>
		<rect x="40.1" y="160.8" class="st65" width="131.1" height="0.3"/>
		<rect x="40.1" y="160.2" class="st66" width="131.1" height="0.6"/>
		<rect x="40.1" y="159.8" class="st67" width="131.1" height="0.4"/>
		<rect x="40.1" y="159.5" class="st68" width="131.1" height="0.3"/>
		<rect x="40.1" y="158.9" class="st69" width="131.1" height="0.6"/>
		<rect x="40.1" y="158.4" class="st70" width="131.1" height="0.6"/>
		<rect x="40.1" y="158.1" class="st71" width="131.1" height="0.3"/>
		<rect x="40.1" y="157.8" class="st72" width="131.1" height="0.3"/>
		<rect x="40.1" y="157.2" class="st73" width="131.1" height="0.6"/>
		<rect x="40.1" y="156.6" class="st74" width="131.1" height="0.6"/>
		<rect x="40.1" y="156.4" class="st75" width="131.1" height="0.3"/>
		<rect x="40.1" y="156.1" class="st76" width="131.1" height="0.3"/>
		<rect x="40.1" y="155.5" class="st77" width="131.1" height="0.6"/>
		<rect x="40.1" y="155.2" class="st78" width="131.1" height="0.3"/>
		<rect x="40.1" y="154.9" class="st79" width="131.1" height="0.3"/>
		<rect x="40.1" y="154.3" class="st80" width="131.1" height="0.6"/>
		<rect x="40.1" y="153.8" class="st81" width="131.1" height="0.6"/>
		<rect x="40.1" y="153.5" class="st82" width="131.1" height="0.3"/>
		<rect x="40.1" y="153.2" class="st83" width="131.1" height="0.3"/>
		<rect x="40.1" y="152.6" class="st84" width="131.1" height="0.6"/>
		<rect x="40.1" y="152" class="st85" width="131.1" height="0.6"/>
		<rect x="40.1" y="151.7" class="st86" width="131.1" height="0.3"/>
		<rect x="40.1" y="151.4" class="st87" width="131.1" height="0.3"/>
		<rect x="40.1" y="147.8" class="st88" width="131.1" height="3.6"/>
	</g>
</g>
<g>
	<defs>
		<rect id="SVGID_00000136406433282293014060000005596328648202171571_" y="0.2" width="211.1" height="198.8"/>
	</defs>
	<clipPath id="SVGID_00000111910978953922148200000002754345420877400967_">
		<use xlink:href="#SVGID_00000136406433282293014060000005596328648202171571_"  style="overflow:visible;"/>
	</clipPath>
	<g style="clip-path:url(#SVGID_00000111910978953922148200000002754345420877400967_);">
		<path class="st90" d="M40.1,184.4c3.1-4.2,6.2-9,11-11.5c2.4-1.4,4.8-3,7-4.8c1.7-1.6,3.1-3.5,4.2-5.6c0.8-1.6,2-2.9,3.7-3.6
			c2.8-1.7,6.7,1,8.7-0.8c6-5.6,24.7-10.2,38.8-9.6c2.8,0,5.5,1.2,7.3,3.4c0.8,1.1-0.3,3.1,0.6,4.5c1.3,1.5,3.3,2.3,5.3,2
			c2.2-0.3,3.4-2.2,5.6-2.8c0.9-0.1,1.9-0.1,2.8,0c1.7,1.2,3.5,2.2,5.3,3.1c2.2,0.6,4.5,0.8,6.2,2.2c7.9,5.9,16.3,9.3,22.5,17.1
			c2.2,2.8,2,6.2,2.2,9.6"/>
		<path class="st97" d="M122.2,89.1c5.8,0.9,10.9-0.9,11.4-4.1s-3.9-6.4-9.7-7.2s-10.9,0.9-11.4,4.1S116.4,88.2,122.2,89.1"/>
		<path class="st98" d="M122.2,89.1c5.8,0.9,10.9-0.9,11.4-4.1s-3.9-6.4-9.7-7.2s-10.9,0.9-11.4,4.1S116.4,88.2,122.2,89.1z"/>
		<path class="st97" d="M123.1,134.8c5.8,0.9,10.9-0.9,11.4-4.1s-3.9-6.4-9.7-7.2s-10.9,0.9-11.4,4
			C112.9,130.6,117.3,133.9,123.1,134.8"/>
		<path class="st98" d="M123.1,134.8c5.8,0.9,10.9-0.9,11.4-4.1s-3.9-6.4-9.7-7.2s-10.9,0.9-11.4,4
			C112.9,130.6,117.3,134,123.1,134.8z"/>
		<path class="st0" d="M90.7,123.2c-0.8,6,4.6,7.9,8.8,11.7c2.1,1.6,4.8,1.9,7.2,0.8c1.4-0.6,2.2-2.2,4-2.8c1-0.6,2.4-1.6,2.4-2.8
			c1-6.9-5.2-11.1-9.5-15.5c-4-3.2-11.1-1.2-12.9,4.2C89.9,120.2,89.9,121.9,90.7,123.2"/>
		<path class="st90" d="M90.7,123.2c-0.8,6,4.6,7.9,8.8,11.7c2.1,1.6,4.8,1.9,7.2,0.8c1.4-0.6,2.2-2.2,4-2.8c1-0.6,2.4-1.6,2.4-2.8
			c1-6.9-5.2-11.1-9.5-15.5c-4-3.2-11.1-1.2-12.9,4.2C89.9,120.2,89.9,121.9,90.7,123.2"/>
	</g>
</g>
<text transform="matrix(1 0 0 1 12.24 59.47)" class="st99 st100 st101">(a)</text>
<text transform="matrix(1 0 0 1 12.24 100.03)" class="st99 st100 st101">(b)</text>
<text transform="matrix(1 0 0 1 12.24 142.67)" class="st99 st100 st101">(c)</text>
<text transform="matrix(1 0 0 1 12.24 188.42)" class="st99 st100 st101">(d)</text>
<text transform="matrix(1 0 0 1 61.87 91.12)" class="st99 st100 st101">Phagosome</text>
<text transform="matrix(1 0 0 1 125.12 98.04)" class="st99 st100 st101">Lysosome</text>
<text transform="matrix(1 0 0 1 108.22 144.44)" class="st99 st100 st101">fuse</text>
<text transform="matrix(1 0 0 1 120.25 187.68)" class="st99 st100 st101">&quot;so long,</text>
<g>
	<defs>
		<rect id="SVGID_00000052817092530930873370000013532678547098922403_" y="0.2" width="211.1" height="198.8"/>
	</defs>
	<clipPath id="SVGID_00000088111889965918403450000013196675960782812566_">
		<use xlink:href="#SVGID_00000052817092530930873370000013532678547098922403_"  style="overflow:visible;"/>
	</clipPath>
	<g style="clip-path:url(#SVGID_00000088111889965918403450000013196675960782812566_);">
		<text transform="matrix(1 0 0 1 120.25 197.27)" class="st99 st100 st101">bacterium!&quot;</text>
		<text transform="matrix(1 0 0 1 0 6.88)" class="st99 st100 st101">Bacterium Outside</text>
	</g>
</g>
<text transform="matrix(1 0 0 1 2.22 16.48)" class="st99 st100 st101"> of Macrophage</text>
<text transform="matrix(1 0 0 1 159.35 33.08)" class="st99 st100 st101">Surface of</text>
<text transform="matrix(1 0 0 1 159.35 42.68)" class="st99 st100 st101">  Macrophage</text>
<g>
	<defs>
		<rect id="SVGID_00000181088500504195948640000010687750073123524498_" y="0.2" width="211.1" height="198.8"/>
	</defs>
	<clipPath id="SVGID_00000169543167496874524930000015972198963644363396_">
		<use xlink:href="#SVGID_00000181088500504195948640000010687750073123524498_"  style="overflow:visible;"/>
	</clipPath>
	<g style="clip-path:url(#SVGID_00000169543167496874524930000015972198963644363396_);">
		<path class="st97" d="M100.9,168.9c-4.4-0.7-8.8-0.9-13.2-0.6c-2.2,0.1-5.5,2.3-6.3,4.3c-1.4,3.4,0.3,9.3,3.9,10.4
			c1.3,0.5,2.6,0.9,3.9,1c3.3,0.3,6.7,0.1,10-0.7c1.3-0.6,2.8-1,4.2-1.3c3.8,0.6,6,0.5,8.7-0.8c1.4-0.7,2.9-0.8,4.1-1.8
			c1.1-1,1.9-2.3,2.2-3.8c0.3-1,0.3-2,0-2.9c-0.3-1.4-2.7-2.7-4.1-3.1c-4.5-1.5-3.4-2.1-11-0.1L100.9,168.9z"/>
		<path class="st104" d="M100.9,168.9c-4.4-0.7-8.8-0.9-13.2-0.6c-2.2,0.1-5.5,2.3-6.3,4.3c-1.4,3.4,0.3,9.3,3.9,10.4
			c1.3,0.5,2.6,0.9,3.9,1c3.3,0.3,6.7,0.1,10-0.7c1.3-0.6,2.8-1,4.2-1.3c3.8,0.6,6,0.5,8.7-0.8c1.4-0.7,2.9-0.8,4.1-1.8
			c1.1-1,1.9-2.3,2.2-3.8c0.3-1,0.3-2,0-2.9c-0.3-1.4-2.7-2.7-4.1-3.1c-4.5-1.5-3.4-2.1-11-0.1L100.9,168.9z"/>
		<path class="st105" d="M96.1,13.9c0,1.1-1.9,2.1-3.1,2.1H78.4c-1.2,0-3-1-3-2.1s1.9-2.1,3-2.1H93C94.2,11.7,96,12.7,96.1,13.9"/>
		<path class="st106" d="M96.1,13.9c0,1.1-1.9,2.1-3.1,2.1H78.4c-1.2,0-3-1-3-2.1s1.9-2.1,3-2.1H93C94.2,11.7,96.1,12.7,96.1,13.9z"
			/>
		<path class="st105" d="M104.1,80.3c-1.2,0.2-2.4-1.5-2.6-2.7l-2.3-14.4c-0.2-1.2,0.4-3.2,1.6-3.3s2.4,1.5,2.6,2.7l2.3,14.4
			C105.9,78.2,105.3,80.2,104.1,80.3"/>
		<path class="st106" d="M104.1,80.3c-1.2,0.2-2.4-1.5-2.6-2.7l-2.3-14.4c-0.2-1.2,0.4-3.2,1.6-3.3s2.4,1.5,2.6,2.7l2.3,14.4
			C105.9,78.1,105.3,80.1,104.1,80.3z"/>
		<path class="st105" d="M110,128.9c-0.6,1-2.7,1-3.7,0.4l-12.8-7.1c-1-0.6-2.2-2.3-1.6-3.3s2.7-1,3.7-0.4l12.8,7
			C109.4,126.1,110.6,127.8,110,128.9"/>
		<path class="st106" d="M110,128.9c-0.6,1-2.7,1-3.7,0.4l-12.8-7.1c-1-0.6-2.2-2.3-1.6-3.3s2.7-1,3.7-0.4l12.8,7
			C109.4,126.1,110.6,127.8,110,128.9z"/>
		<path class="st105" d="M110.6,171.8c-0.5,0.1,0.3,0.1,0,0.5c1,0.1-0.2,0.3-0.1,0.8c0.5,0.9-0.5,1.3-1.1,1.6
			c-1,0.2-1.5-0.3-2.2-0.5c-0.2-1.1,0-2.3,0.5-3.2c1,0.5,2.1,0.6,2.7-0.4C111.5,170.6,110.7,171.4,110.6,171.8"/>
		<path class="st107" d="M110.6,171.8c-0.5,0.1,0.3,0.1,0,0.5c1,0.1-0.2,0.3-0.1,0.8c0.5,0.9-0.5,1.3-1.1,1.6
			c-1,0.2-1.5-0.3-2.2-0.5c-0.2-1.1,0-2.3,0.5-3.2c1,0.5,2.1,0.6,2.7-0.4C111.6,170.6,110.7,171.4,110.6,171.8z"/>
		<path class="st105" d="M97.2,180c0.4,0,0.2,0.4,0.2,0.6c-0.7,0.2-0.6,1.1-1.2,1.5c-0.7,0.1-1.2,0.7-1.8,0c0.3-1.5-1.9-0.9-1.1-2.3
			c0.8-0.9,1.9-1.8,3.4-1.2C97.2,178.9,96.8,179.8,97.2,180"/>
		<path class="st107" d="M97.2,180c0.4,0,0.2,0.4,0.2,0.6c-0.7,0.2-0.6,1.1-1.2,1.5c-0.7,0.1-1.2,0.7-1.8,0c0.3-1.5-1.9-0.9-1.1-2.3
			c0.8-0.9,1.9-1.8,3.4-1.2C97.2,179,96.8,179.8,97.2,180z"/>
		<path class="st105" d="M91.6,173.3c0.2,0.5,1.2,1.1,0.5,1.9c-1.2-1.1-1.2,1.5-1.9-0.1c-2,0.4-2-1.6-3.5-1.9
			c-0.2-0.2-0.3-0.8,0-0.9c1.2-0.5,3.5-0.1,4-0.9C92.3,171.4,90.4,173,91.6,173.3"/>
		<path class="st107" d="M91.6,173.3c0.2,0.5,1.2,1.1,0.5,1.9c-1.2-1.1-1.2,1.5-1.9-0.1c-2,0.4-2-1.6-3.5-1.9
			c-0.2-0.2-0.3-0.8,0-0.9c1.2-0.5,3.5-0.1,4-0.9C92.3,171.4,90.4,173,91.6,173.3z"/>
		<path class="st105" d="M104.8,171.4c0.6,2.2-2.6,1.4-1.7,3.5c-0.5,0-0.9-0.4-1-0.9c0.2-1.4-1.4-1.1-1.1-2.5
			c1.1-0.2,1.4-1.6,2.6-1.1C103.9,170.7,104.3,171.1,104.8,171.4"/>
		<path class="st107" d="M104.8,171.4c0.6,2.2-2.6,1.4-1.7,3.5c-0.5,0-0.9-0.4-1-0.9c0.2-1.4-1.4-1.1-1.1-2.5
			c1.1-0.2,1.4-1.6,2.6-1.1C103.9,170.7,104.3,171.1,104.8,171.4z"/>
		<path class="st105" d="M98.8,175.9c-0.1,1.2-1.6,1-2.5,1.3c-0.2-0.3-0.2-0.9-0.5-1c-0.7,0-0.9-1-0.5-1.5s1-0.5,1.5-0.8
			C97.9,174.1,98.2,175.2,98.8,175.9"/>
		<path class="st107" d="M98.8,175.9c-0.1,1.2-1.6,1-2.5,1.3c-0.2-0.3-0.2-0.9-0.5-1c-0.7,0-0.9-1-0.5-1.5s1-0.5,1.5-0.8
			C97.9,174.1,98.2,175.2,98.8,175.9z"/>
		<path class="st105" d="M116.3,173.3c-0.1,0.8,0.1,1.5,0.7,1.7c0.1,1.4-1.6-0.5-1.8,0.9c-1.3-0.1-2.7-0.4-2.1-2.2
			c-0.1-0.9,0.8-0.8,1.3-1C115.3,172.7,115.4,173.1,116.3,173.3"/>
		<path class="st107" d="M116.3,173.3c-0.1,0.8,0.1,1.5,0.7,1.7c0.1,1.4-1.6-0.5-1.8,0.9c-1.3-0.1-2.7-0.4-2.1-2.2
			c-0.1-0.9,0.8-0.8,1.3-1C115.3,172.6,115.4,173,116.3,173.3z"/>
		<path class="st105" d="M108.4,177.9c0.7-0.1,0.9-0.3,1.6,0.1c-0.1,0.6,1,0.4,1.2,0.2c0.2,0.6,0.4-0.4,0.6,0.2
			c-0.8,0.5-0.6,2.4-1.7,1.9c-0.5,0.2-1.3,1.1-1.5,0.1c-0.5,0-0.8,0.6-1.5,0.7c-1.2-0.5-0.5-2-0.5-2.7
			C107.3,178.4,107.8,176.5,108.4,177.9"/>
		<path class="st107" d="M108.4,177.9c0.7-0.1,0.9-0.3,1.6,0.1c-0.1,0.6,1,0.4,1.2,0.2c0.2,0.6,0.4-0.4,0.6,0.2
			c-0.8,0.5-0.6,2.4-1.7,1.9c-0.5,0.2-1.3,1.1-1.5,0.1c-0.5,0-0.8,0.6-1.5,0.7c-1.2-0.5-0.5-2-0.5-2.7
			C107.3,178.4,107.8,176.5,108.4,177.9z"/>
		<path class="st105" d="M89.8,177.8c-0.7,0.8,1.3,0.3,0.5,1.1c-0.9,0.5-0.5,0.9-1.1,1.7c-1,0.9-2.4-0.3-3.6,0.4
			c-0.5,0-0.6-0.8-0.3-1.1c1.7-0.2,1.4-2.2,3.1-2.5C88.6,176.8,90.8,176.6,89.8,177.8"/>
		<path class="st107" d="M89.8,177.8c-0.7,0.8,1.3,0.3,0.5,1.1c-0.9,0.5-0.5,0.9-1.1,1.7c-1,0.9-2.4-0.3-3.6,0.4
			c-0.5,0-0.6-0.8-0.3-1.1c1.7-0.2,1.4-2.2,3.1-2.5C88.6,176.8,90.8,176.6,89.8,177.8z"/>
	</g>
</g>
</svg>
