<svg xmlns="http://www.w3.org/2000/svg" xmlns:xlink="http://www.w3.org/1999/xlink" viewBox="0 0 207.35 198.4"><defs><style>.a,.cm,.cr,.cv,.cx,.cy{fill:none;}.b{clip-path:url(#a);}.c{fill:#fffefe;}.d{fill:#fffefd;}.e{fill:#fffdfc;}.f{fill:#fffcfb;}.g{fill:#fffcfa;}.h{fill:#fffbf9;}.i{fill:#fffaf8;}.j{fill:#fffaf7;}.k{fill:#fff9f6;}.l{fill:#fef8f4;}.m{fill:#fef7f3;}.n{fill:#fef7f2;}.o{fill:#fef6f1;}.p{fill:#fef5f0;}.q{fill:#fef4ef;}.r{fill:#fef4ee;}.s{fill:#fef3ec;}.t{fill:#fef2eb;}.u{fill:#fef2ea;}.v{fill:#fef1e9;}.w{fill:#fef0e8;}.x{fill:#feefe7;}.y{fill:#fdefe6;}.z{fill:#fdeee5;}.aa{fill:#fdede4;}.ab{fill:#fdece3;}.ac{fill:#fdebe1;}.ad{fill:#fdebe0;}.ae{fill:#fdeadf;}.af{fill:#fde9de;}.ag{fill:#fde9dd;}.ah{fill:#fde8dc;}.ai{fill:#fce7db;}.aj{fill:#fce6da;}.ak{fill:#fce5d9;}.al{fill:#fce5d8;}.am{fill:#fce4d6;}.an{fill:#fce3d5;}.ao{fill:#fce2d4;}.ap{fill:#fce1d3;}.aq{fill:#fce1d2;}.ar{fill:#fbe0d1;}.as{fill:#fbdfd0;}.at{fill:#fbdecf;}.au{fill:#fbdece;}.av{fill:#fbddcc;}.aw{fill:#fbdccb;}.ax{fill:#fbdbca;}.ay{fill:#fbdac9;}.az{fill:#fbdac8;}.ba{fill:#fbd9c7;}.bb{fill:#fbd8c6;}.bc{fill:#fad7c5;}.bd{fill:#fad6c3;}.be{fill:#fad6c2;}.bf{fill:#fad5c1;}.bg{fill:#fad4c0;}.bh{fill:#fad3bf;}.bi{fill:#fad3be;}.bj{fill:#fad2bd;}.bk{fill:#fad1bc;}.bl{fill:#fad0bb;}.bm{fill:#f9cfba;}.bn{fill:#f9cfb8;}.bo{fill:#f9ceb7;}.bp{fill:#f9cdb6;}.bq{fill:#f9ccb5;}.br{fill:#f9cbb4;}.bs{fill:#f9cab3;}.bt{fill:#f9cab2;}.bu{fill:#f8c9b1;}.bv{fill:#f8c8b0;}.bw{fill:#f8c7af;}.bx{fill:#f8c6ae;}.by{fill:#f8c6ac;}.bz{fill:#f8c5ab;}.ca{fill:#f8c4aa;}.cb{fill:#f8c3a9;}.cc{fill:#f8c2a8;}.cd{fill:#f7c2a7;}.ce{fill:#f7c1a6;}.cf{fill:#f7c0a5;}.cg{fill:#f7bfa4;}.ch{fill:#f7bea3;}.ci{fill:#f7bea2;}.cj{fill:#f7bda0;}.ck{fill:#f7bc9f;}.cl{clip-path:url(#b);}.cm{stroke:#9a7462;stroke-width:0.75px;}.cn{clip-path:url(#c);}.co{clip-path:url(#e);}.cp{clip-path:url(#g);}.cq{fill:#94252a;}.cr{stroke:#5d070c;}.cr,.cv,.cx{stroke-width:0.5px;}.cs{fill:#fff;}.ct,.cu{font-size:8px;fill:#231815;}.ct{font-family:HelveticaNeueLTStd-Roman, HelveticaNeueLTStd Roman;}.cu{font-family:HelveticaNeueLTStd-It, HelveticaNeueLTStd It;font-style:italic;}.cv{stroke:#231815;}.cw{fill:#e1c9e1;}.cx,.cy{stroke:#8d7e8e;}.cy{stroke-width:0.31px;}</style><clipPath id="a" transform="translate(0)"><path class="a" d="M110.31,23.09c-6.79,13-9.73,11.15-12,5.46-2.25-4.77-5.72-5.37-9.93-4.25-2.8,4.49-7.86,9.26-13.76,6.74a9.73,9.73,0,0,0-8.7.84,7.68,7.68,0,0,0-3.65,3.65,21.11,21.11,0,0,1-4.21,5.62,61.8,61.8,0,0,1-7,4.77c-4.77,2.53-7.86,7.3-11,11.51L171.2,60.52c-.28-3.37,0-6.74-2.24-9.55-6.18-7.86-14.6-11.23-22.47-17.12-1.68-1.41-3.93-1.69-6.17-2.25A33.23,33.23,0,0,1,135,28.51a9.45,9.45,0,0,0-2.81,0c-2.24.56-3.37,2.53-5.61,2.81a6.1,6.1,0,0,1-5.34-2c-.84-1.4.86-5.13,0-6.26s-3.36-1.76-5.76-1.76-4.53.56-5.16,1.76"/></clipPath><clipPath id="b" transform="translate(0)"><rect class="a" y="0.23" width="211.07" height="198.75"/></clipPath><clipPath id="c" transform="translate(0)"><path class="a" d="M105.17,55.23c-3.37,1.4,6.49,20.13,4.26,24.59s-12.58,4-16.33.21c-2.93-2.93,4.12-14.44,4-19.81,0-1.46.94-5.46-3.27-5C84,59.75,79.27,66,74.61,70.19c-1,.94-2.55.71-4.15.47s-3.17-.46-4.55.37a7.68,7.68,0,0,0-3.65,3.65,21.11,21.11,0,0,1-4.21,5.62,61.8,61.8,0,0,1-7,4.77c-4.77,2.53-7.86,7.3-11,11.51L171.2,99.67c-.28-3.37,0-6.74-2.24-9.55-6.18-7.86-14.6-11.23-22.47-17.12-1.68-1.41-3.93-1.69-6.17-2.25A33.23,33.23,0,0,1,135,67.66a9.45,9.45,0,0,0-2.81,0c-2.24.56-3.37,2.53-5.61,2.81a6.1,6.1,0,0,1-5.34-2c-.84-1.4.28-3.36-.56-4.49-1.57-2.09-11.49-8.9-14.87-8.9a1.46,1.46,0,0,0-.62.12"/></clipPath><clipPath id="e" transform="translate(0)"><path class="a" d="M74.61,114.72c-1,1-2.55.72-4.16.48s-3.17-.46-4.54.36a7.68,7.68,0,0,0-3.65,3.65,20.9,20.9,0,0,1-4.21,5.61,61.87,61.87,0,0,1-7,4.78c-4.77,2.53-7.86,7.3-11,11.51L171.2,144.2c-.28-3.37,0-6.74-2.24-9.55-6.18-7.86-14.6-11.23-22.47-17.12-1.68-1.41-3.93-1.69-6.17-2.25a33.23,33.23,0,0,1-5.34-3.09,9.45,9.45,0,0,0-2.81,0c-2.24.56-3.37,2.53-5.61,2.81a6.1,6.1,0,0,1-5.34-2c-.84-1.4.28-3.37-.56-4.49a9.51,9.51,0,0,0-7.3-3.37c-.88,0-1.79-.06-2.71-.06-13.62,0-30.41,4.35-36,9.61"/></clipPath><clipPath id="g" transform="translate(0)"><path class="a" d="M74.61,158c-1,1-2.55.72-4.16.48s-3.17-.47-4.54.35a7.7,7.7,0,0,0-3.65,3.66,21.06,21.06,0,0,1-4.21,5.61,60.52,60.52,0,0,1-7,4.77c-4.77,2.53-7.86,7.31-11,11.52l131.12,3.09c-.28-3.37,0-6.74-2.24-9.55-6.18-7.86-14.6-11.23-22.47-17.13-1.68-1.4-3.93-1.68-6.17-2.25A33.19,33.19,0,0,1,135,155.5a9.45,9.45,0,0,0-2.81,0c-2.24.56-3.37,2.53-5.61,2.81a6.16,6.16,0,0,1-5.34-2c-.84-1.4.28-3.37-.56-4.49a9.48,9.48,0,0,0-7.3-3.37c-.89,0-1.79-.06-2.71-.06-13.63,0-30.41,4.34-36,9.61"/></clipPath></defs><g class="b"><rect class="c" x="40.08" y="56.5" width="131.12" height="4.02"/><rect class="d" x="40.08" y="56.01" width="131.12" height="0.49"/><rect class="e" x="40.08" y="55.53" width="131.12" height="0.49"/><rect class="f" x="40.08" y="55.28" width="131.12" height="0.24"/><rect class="g" x="40.08" y="55.04" width="131.12" height="0.24"/><rect class="h" x="40.08" y="54.55" width="131.12" height="0.49"/><rect class="i" x="40.08" y="54.06" width="131.12" height="0.49"/><rect class="j" x="40.08" y="53.82" width="131.12" height="0.24"/><rect class="k" x="40.08" y="53.57" width="131.12" height="0.24"/><rect class="l" x="40.08" y="53.08" width="131.12" height="0.49"/><rect class="m" x="40.08" y="52.84" width="131.12" height="0.24"/><rect class="n" x="40.08" y="52.59" width="131.12" height="0.24"/><rect class="o" x="40.08" y="52.1" width="131.12" height="0.49"/><rect class="p" x="40.08" y="51.62" width="131.12" height="0.49"/><rect class="q" x="40.08" y="51.37" width="131.12" height="0.24"/><rect class="r" x="40.08" y="51.13" width="131.12" height="0.24"/><rect class="s" x="40.08" y="50.64" width="131.12" height="0.49"/><rect class="t" x="40.08" y="50.15" width="131.12" height="0.49"/><rect class="u" x="40.08" y="49.91" width="131.12" height="0.24"/><rect class="v" x="40.08" y="49.66" width="131.12" height="0.24"/><rect class="w" x="40.08" y="49.17" width="131.12" height="0.49"/><rect class="x" x="40.08" y="48.93" width="131.12" height="0.24"/><rect class="y" x="40.08" y="48.56" width="131.12" height="0.37"/><rect class="z" x="40.08" y="48.07" width="131.12" height="0.49"/><rect class="aa" x="40.08" y="47.58" width="131.12" height="0.49"/><rect class="ab" x="40.08" y="47.34" width="131.12" height="0.24"/><rect class="ac" x="40.08" y="47.1" width="131.12" height="0.24"/><rect class="ad" x="40.08" y="46.61" width="131.12" height="0.49"/><rect class="ae" x="40.08" y="46.12" width="131.12" height="0.49"/><rect class="af" x="40.08" y="45.87" width="131.12" height="0.24"/><rect class="ag" x="40.08" y="45.63" width="131.12" height="0.24"/><rect class="ah" x="40.08" y="45.14" width="131.12" height="0.49"/><rect class="ai" x="40.08" y="44.9" width="131.12" height="0.24"/><rect class="aj" x="40.08" y="44.65" width="131.12" height="0.24"/><rect class="ak" x="40.08" y="44.16" width="131.12" height="0.49"/><rect class="al" x="40.08" y="43.67" width="131.12" height="0.49"/><rect class="am" x="40.08" y="43.43" width="131.12" height="0.24"/><rect class="an" x="40.08" y="43.19" width="131.12" height="0.24"/><rect class="ao" x="40.08" y="42.7" width="131.12" height="0.49"/><rect class="ap" x="40.08" y="42.21" width="131.12" height="0.49"/><rect class="aq" x="40.08" y="41.96" width="131.12" height="0.24"/><rect class="ar" x="40.08" y="41.72" width="131.12" height="0.24"/><rect class="as" x="40.08" y="41.23" width="131.12" height="0.49"/><rect class="at" x="40.08" y="40.86" width="131.12" height="0.37"/><rect class="au" x="40.08" y="40.62" width="131.12" height="0.24"/><rect class="av" x="40.08" y="40.13" width="131.12" height="0.49"/><rect class="aw" x="40.08" y="39.64" width="131.12" height="0.49"/><rect class="ax" x="40.08" y="39.4" width="131.12" height="0.24"/><rect class="ay" x="40.08" y="39.15" width="131.12" height="0.24"/><rect class="az" x="40.08" y="38.66" width="131.12" height="0.49"/><rect class="ba" x="40.08" y="38.18" width="131.12" height="0.49"/><rect class="bb" x="40.08" y="37.93" width="131.12" height="0.24"/><rect class="bc" x="40.08" y="37.69" width="131.12" height="0.24"/><rect class="bd" x="40.08" y="37.2" width="131.12" height="0.49"/><rect class="be" x="40.08" y="36.95" width="131.12" height="0.24"/><rect class="bf" x="40.08" y="36.71" width="131.12" height="0.24"/><rect class="bg" x="40.08" y="36.22" width="131.12" height="0.49"/><rect class="bh" x="40.08" y="35.73" width="131.12" height="0.49"/><rect class="bi" x="40.08" y="35.49" width="131.12" height="0.24"/><rect class="bj" x="40.08" y="35.24" width="131.12" height="0.24"/><rect class="bk" x="40.08" y="34.75" width="131.12" height="0.49"/><rect class="bl" x="40.08" y="34.27" width="131.12" height="0.49"/><rect class="bm" x="40.08" y="34.02" width="131.12" height="0.24"/><rect class="bn" x="40.08" y="33.78" width="131.12" height="0.24"/><rect class="bo" x="40.08" y="33.29" width="131.12" height="0.49"/><rect class="bp" x="40.08" y="32.92" width="131.12" height="0.37"/><rect class="bq" x="40.08" y="32.68" width="131.12" height="0.24"/><rect class="br" x="40.08" y="32.19" width="131.12" height="0.49"/><rect class="bs" x="40.08" y="31.7" width="131.12" height="0.49"/><rect class="bt" x="40.08" y="31.46" width="131.12" height="0.24"/><rect class="bu" x="40.08" y="31.21" width="131.12" height="0.24"/><rect class="bv" x="40.08" y="30.72" width="131.12" height="0.49"/><rect class="bw" x="40.08" y="30.23" width="131.12" height="0.49"/><rect class="bx" x="40.08" y="29.99" width="131.12" height="0.24"/><rect class="by" x="40.08" y="29.75" width="131.12" height="0.24"/><rect class="bz" x="40.08" y="29.26" width="131.12" height="0.49"/><rect class="ca" x="40.08" y="29.01" width="131.12" height="0.24"/><rect class="cb" x="40.08" y="28.77" width="131.12" height="0.24"/><rect class="cc" x="40.08" y="28.28" width="131.12" height="0.49"/><rect class="cd" x="40.08" y="27.79" width="131.12" height="0.49"/><rect class="ce" x="40.08" y="27.55" width="131.12" height="0.24"/><rect class="cf" x="40.08" y="27.3" width="131.12" height="0.24"/><rect class="cg" x="40.08" y="26.81" width="131.12" height="0.49"/><rect class="ch" x="40.08" y="26.32" width="131.12" height="0.49"/><rect class="ci" x="40.08" y="26.08" width="131.12" height="0.24"/><rect class="cj" x="40.08" y="25.84" width="131.12" height="0.24"/><rect class="ck" x="40.08" y="20.64" width="131.12" height="5.19"/></g><g class="cl"><path class="cm" d="M40.08,57.43c3.09-4.21,6.18-9,11-11.51a61.8,61.8,0,0,0,7-4.77,21.11,21.11,0,0,0,4.21-5.62,7.68,7.68,0,0,1,3.65-3.65,9.7,9.7,0,0,1,8.7-.84c5.9,2.52,11-2.25,13.76-6.74,4.21-1.12,7.68-.52,9.93,4.25,2.28,5.69,5.22,7.53,12-5.46,1.28-2.45,9.24-2.24,10.92,0,.84,1.13-.85,4.86,0,6.26a6.1,6.1,0,0,0,5.34,2c2.24-.28,3.37-2.25,5.61-2.81a9.45,9.45,0,0,1,2.81,0,33.23,33.23,0,0,0,5.34,3.09c2.24.56,4.49.84,6.17,2.25C154.35,39.74,162.78,43.11,169,51c2.25,2.81,2,6.18,2.25,9.55" transform="translate(0)"/></g><g class="cn"><rect class="c" x="40.08" y="97.09" width="131.12" height="2.58"/><rect class="d" x="40.08" y="96.49" width="131.12" height="0.6"/><rect class="e" x="40.08" y="95.89" width="131.12" height="0.6"/><rect class="f" x="40.08" y="95.59" width="131.12" height="0.3"/><rect class="g" x="40.08" y="95.29" width="131.12" height="0.3"/><rect class="h" x="40.08" y="94.68" width="131.12" height="0.6"/><rect class="i" x="40.08" y="94.08" width="131.12" height="0.6"/><rect class="j" x="40.08" y="93.78" width="131.12" height="0.3"/><rect class="k" x="40.08" y="93.48" width="131.12" height="0.3"/><rect class="l" x="40.08" y="92.87" width="131.12" height="0.6"/><rect class="m" x="40.08" y="92.57" width="131.12" height="0.3"/><rect class="n" x="40.08" y="92.27" width="131.12" height="0.3"/><rect class="o" x="40.08" y="91.67" width="131.12" height="0.6"/><rect class="p" x="40.08" y="91.07" width="131.12" height="0.6"/><rect class="q" x="40.08" y="90.76" width="131.12" height="0.3"/><rect class="r" x="40.08" y="90.46" width="131.12" height="0.3"/><rect class="s" x="40.08" y="89.86" width="131.12" height="0.6"/><rect class="t" x="40.08" y="89.26" width="131.12" height="0.6"/><rect class="u" x="40.08" y="88.96" width="131.12" height="0.3"/><rect class="v" x="40.08" y="88.65" width="131.12" height="0.3"/><rect class="w" x="40.08" y="88.05" width="131.12" height="0.6"/><rect class="x" x="40.08" y="87.75" width="131.12" height="0.3"/><rect class="y" x="40.08" y="87.3" width="131.12" height="0.45"/><rect class="z" x="40.08" y="86.69" width="131.12" height="0.6"/><rect class="aa" x="40.08" y="86.09" width="131.12" height="0.6"/><rect class="ab" x="40.08" y="85.79" width="131.12" height="0.3"/><rect class="ac" x="40.08" y="85.49" width="131.12" height="0.3"/><rect class="ad" x="40.08" y="84.89" width="131.12" height="0.6"/><rect class="ae" x="40.08" y="84.28" width="131.12" height="0.6"/><rect class="af" x="40.08" y="83.98" width="131.12" height="0.3"/><rect class="ag" x="40.08" y="83.68" width="131.12" height="0.3"/><rect class="ah" x="40.08" y="83.08" width="131.12" height="0.6"/><rect class="ai" x="40.08" y="82.78" width="131.12" height="0.3"/><rect class="aj" x="40.08" y="82.47" width="131.12" height="0.3"/><rect class="ak" x="40.08" y="81.87" width="131.12" height="0.6"/><rect class="al" x="40.08" y="81.27" width="131.12" height="0.6"/><rect class="am" x="40.08" y="80.97" width="131.12" height="0.3"/><rect class="an" x="40.08" y="80.66" width="131.12" height="0.3"/><rect class="ao" x="40.08" y="80.06" width="131.12" height="0.6"/><rect class="ap" x="40.08" y="79.46" width="131.12" height="0.6"/><rect class="aq" x="40.08" y="79.16" width="131.12" height="0.3"/><rect class="ar" x="40.08" y="78.86" width="131.12" height="0.3"/><rect class="as" x="40.08" y="78.25" width="131.12" height="0.6"/><rect class="at" x="40.08" y="77.8" width="131.12" height="0.45"/><rect class="au" x="40.08" y="77.5" width="131.12" height="0.3"/><rect class="av" x="40.08" y="76.9" width="131.12" height="0.6"/><rect class="aw" x="40.08" y="76.29" width="131.12" height="0.6"/><rect class="ax" x="40.08" y="75.99" width="131.12" height="0.3"/><rect class="ay" x="40.08" y="75.69" width="131.12" height="0.3"/><rect class="az" x="40.08" y="75.09" width="131.12" height="0.6"/><rect class="ba" x="40.08" y="74.48" width="131.12" height="0.6"/><rect class="bb" x="40.08" y="74.18" width="131.12" height="0.3"/><rect class="bc" x="40.08" y="73.88" width="131.12" height="0.3"/><rect class="bd" x="40.08" y="73.28" width="131.12" height="0.6"/><rect class="be" x="40.08" y="72.98" width="131.12" height="0.3"/><rect class="bf" x="40.08" y="72.67" width="131.12" height="0.3"/><rect class="bg" x="40.08" y="72.07" width="131.12" height="0.6"/><rect class="bh" x="40.08" y="71.47" width="131.12" height="0.6"/><rect class="bi" x="40.08" y="71.17" width="131.12" height="0.3"/><rect class="bj" x="40.08" y="70.87" width="131.12" height="0.3"/><rect class="bk" x="40.08" y="70.26" width="131.12" height="0.6"/><rect class="bl" x="40.08" y="69.66" width="131.12" height="0.6"/><rect class="bm" x="40.08" y="69.36" width="131.12" height="0.3"/><rect class="bn" x="40.08" y="69.06" width="131.12" height="0.3"/><rect class="bo" x="40.08" y="68.45" width="131.12" height="0.6"/><rect class="bp" x="40.08" y="68" width="131.12" height="0.45"/><rect class="bq" x="40.08" y="67.7" width="131.12" height="0.3"/><rect class="br" x="40.08" y="67.1" width="131.12" height="0.6"/><rect class="bs" x="40.08" y="66.5" width="131.12" height="0.6"/><rect class="bt" x="40.08" y="66.19" width="131.12" height="0.3"/><rect class="bu" x="40.08" y="65.89" width="131.12" height="0.3"/><rect class="bv" x="40.08" y="65.29" width="131.12" height="0.6"/><rect class="bw" x="40.08" y="64.69" width="131.12" height="0.6"/><rect class="bx" x="40.08" y="64.39" width="131.12" height="0.3"/><rect class="by" x="40.08" y="64.08" width="131.12" height="0.3"/><rect class="bz" x="40.08" y="63.48" width="131.12" height="0.6"/><rect class="ca" x="40.08" y="63.18" width="131.12" height="0.3"/><rect class="cb" x="40.08" y="62.88" width="131.12" height="0.3"/><rect class="cc" x="40.08" y="62.27" width="131.12" height="0.6"/><rect class="cd" x="40.08" y="61.67" width="131.12" height="0.6"/><rect class="ce" x="40.08" y="61.37" width="131.12" height="0.3"/><rect class="cf" x="40.08" y="61.07" width="131.12" height="0.3"/><rect class="cg" x="40.08" y="60.47" width="131.12" height="0.6"/><rect class="ch" x="40.08" y="59.86" width="131.12" height="0.6"/><rect class="ci" x="40.08" y="59.56" width="131.12" height="0.3"/><rect class="cj" x="40.08" y="59.26" width="131.12" height="0.3"/><rect class="ck" x="40.08" y="54.1" width="131.12" height="5.15"/></g><g class="cl"><path class="cm" d="M40.08,96.58c3.09-4.21,6.18-9,11-11.51a61.8,61.8,0,0,0,7-4.77,21.11,21.11,0,0,0,4.21-5.62A7.68,7.68,0,0,1,65.91,71c2.81-1.68,6.65,1,8.7-.84,4.66-4.2,9.34-10.44,19.17-15,4.21-.47,3.23,3.53,3.27,5,.17,5.37-6.88,16.88-4,19.81,3.75,3.74,14.14,4.16,16.33-.21s-7.64-23.19-4.27-24.59c2.53-1.12,13.82,6.54,15.5,8.78.84,1.13-.28,3.09.56,4.49a6.1,6.1,0,0,0,5.34,2c2.24-.28,3.37-2.25,5.61-2.81a9.45,9.45,0,0,1,2.81,0,33.23,33.23,0,0,0,5.34,3.09c2.24.56,4.49.84,6.17,2.25,7.86,5.89,16.29,9.26,22.46,17.12,2.25,2.81,2,6.18,2.25,9.55" transform="translate(0)"/></g><g class="co"><rect class="c" x="40.08" y="141.39" width="131.12" height="2.81"/><rect class="d" x="40.08" y="140.86" width="131.12" height="0.53"/><rect class="e" x="40.08" y="140.34" width="131.12" height="0.53"/><rect class="f" x="40.08" y="140.07" width="131.12" height="0.26"/><rect class="g" x="40.08" y="139.81" width="131.12" height="0.26"/><rect class="h" x="40.08" y="139.28" width="131.12" height="0.53"/><rect class="i" x="40.08" y="138.76" width="131.12" height="0.53"/><rect class="j" x="40.08" y="138.49" width="131.12" height="0.26"/><rect class="k" x="40.08" y="138.23" width="131.12" height="0.26"/><rect class="l" x="40.08" y="137.7" width="131.12" height="0.53"/><rect class="m" x="40.08" y="137.44" width="131.12" height="0.26"/><rect class="n" x="40.08" y="137.18" width="131.12" height="0.26"/><rect class="o" x="40.08" y="136.65" width="131.12" height="0.53"/><rect class="p" x="40.08" y="136.12" width="131.12" height="0.53"/><rect class="q" x="40.08" y="135.86" width="131.12" height="0.26"/><rect class="r" x="40.08" y="135.6" width="131.12" height="0.26"/><rect class="s" x="40.08" y="135.07" width="131.12" height="0.53"/><rect class="t" x="40.08" y="134.54" width="131.12" height="0.53"/><rect class="u" x="40.08" y="134.28" width="131.12" height="0.26"/><rect class="v" x="40.08" y="134.02" width="131.12" height="0.26"/><rect class="w" x="40.08" y="133.49" width="131.12" height="0.53"/><rect class="x" x="40.08" y="133.23" width="131.12" height="0.26"/><rect class="y" x="40.08" y="132.83" width="131.12" height="0.39"/><rect class="z" x="40.08" y="132.3" width="131.12" height="0.53"/><rect class="aa" x="40.08" y="131.78" width="131.12" height="0.53"/><rect class="ab" x="40.08" y="131.51" width="131.12" height="0.26"/><rect class="ac" x="40.08" y="131.25" width="131.12" height="0.26"/><rect class="ad" x="40.08" y="130.72" width="131.12" height="0.53"/><rect class="ae" x="40.08" y="130.2" width="131.12" height="0.53"/><rect class="af" x="40.08" y="129.93" width="131.12" height="0.26"/><rect class="ag" x="40.08" y="129.67" width="131.12" height="0.26"/><rect class="ah" x="40.08" y="129.14" width="131.12" height="0.53"/><rect class="ai" x="40.08" y="128.88" width="131.12" height="0.26"/><rect class="aj" x="40.08" y="128.62" width="131.12" height="0.26"/><rect class="ak" x="40.08" y="128.09" width="131.12" height="0.53"/><rect class="al" x="40.08" y="127.56" width="131.12" height="0.53"/><rect class="am" x="40.08" y="127.3" width="131.12" height="0.26"/><rect class="an" x="40.08" y="127.04" width="131.12" height="0.26"/><rect class="ao" x="40.08" y="126.51" width="131.12" height="0.53"/><rect class="ap" x="40.08" y="125.98" width="131.12" height="0.53"/><rect class="aq" x="40.08" y="125.72" width="131.12" height="0.26"/><rect class="ar" x="40.08" y="125.46" width="131.12" height="0.26"/><rect class="as" x="40.08" y="124.93" width="131.12" height="0.53"/><rect class="at" x="40.08" y="124.53" width="131.12" height="0.39"/><rect class="au" x="40.08" y="124.27" width="131.12" height="0.26"/><rect class="av" x="40.08" y="123.74" width="131.12" height="0.53"/><rect class="aw" x="40.08" y="123.22" width="131.12" height="0.53"/><rect class="ax" x="40.08" y="122.95" width="131.12" height="0.26"/><rect class="ay" x="40.08" y="122.69" width="131.12" height="0.26"/><rect class="az" x="40.08" y="122.16" width="131.12" height="0.53"/><rect class="ba" x="40.08" y="121.64" width="131.12" height="0.53"/><rect class="bb" x="40.08" y="121.37" width="131.12" height="0.26"/><rect class="bc" x="40.08" y="121.11" width="131.12" height="0.26"/><rect class="bd" x="40.08" y="120.58" width="131.12" height="0.53"/><rect class="be" x="40.08" y="120.32" width="131.12" height="0.26"/><rect class="bf" x="40.08" y="120.06" width="131.12" height="0.26"/><rect class="bg" x="40.08" y="119.53" width="131.12" height="0.53"/><rect class="bh" x="40.08" y="119" width="131.12" height="0.53"/><rect class="bi" x="40.08" y="118.74" width="131.12" height="0.26"/><rect class="bj" x="40.08" y="118.48" width="131.12" height="0.26"/><rect class="bk" x="40.08" y="117.95" width="131.12" height="0.53"/><rect class="bl" x="40.08" y="117.42" width="131.12" height="0.53"/><rect class="bm" x="40.08" y="117.16" width="131.12" height="0.26"/><rect class="bn" x="40.08" y="116.9" width="131.12" height="0.26"/><rect class="bo" x="40.08" y="116.37" width="131.12" height="0.53"/><rect class="bp" x="40.08" y="115.97" width="131.12" height="0.39"/><rect class="bq" x="40.08" y="115.71" width="131.12" height="0.26"/><rect class="br" x="40.08" y="115.18" width="131.12" height="0.53"/><rect class="bs" x="40.08" y="114.66" width="131.12" height="0.53"/><rect class="bt" x="40.08" y="114.39" width="131.12" height="0.26"/><rect class="bu" x="40.08" y="114.13" width="131.12" height="0.26"/><rect class="bv" x="40.08" y="113.6" width="131.12" height="0.53"/><rect class="bw" x="40.08" y="113.08" width="131.12" height="0.53"/><rect class="bx" x="40.08" y="112.81" width="131.12" height="0.26"/><rect class="by" x="40.08" y="112.55" width="131.12" height="0.26"/><rect class="bz" x="40.08" y="112.02" width="131.12" height="0.53"/><rect class="ca" x="40.08" y="111.76" width="131.12" height="0.26"/><rect class="cb" x="40.08" y="111.5" width="131.12" height="0.26"/><rect class="cc" x="40.08" y="110.97" width="131.12" height="0.53"/><rect class="cd" x="40.08" y="110.44" width="131.12" height="0.53"/><rect class="ce" x="40.08" y="110.18" width="131.12" height="0.26"/><rect class="cf" x="40.08" y="109.91" width="131.12" height="0.26"/><rect class="cg" x="40.08" y="109.39" width="131.12" height="0.53"/><rect class="ch" x="40.08" y="108.86" width="131.12" height="0.53"/><rect class="ci" x="40.08" y="108.6" width="131.12" height="0.26"/><rect class="cj" x="40.08" y="108.33" width="131.12" height="0.26"/><rect class="ck" x="40.08" y="104.53" width="131.12" height="3.81"/></g><g class="cl"><path class="cm" d="M40.08,141.11c3.09-4.21,6.18-9,11-11.51a61.87,61.87,0,0,0,7-4.78,20.9,20.9,0,0,0,4.21-5.61,7.68,7.68,0,0,1,3.65-3.65c2.81-1.68,6.68,1,8.7-.84,6-5.62,24.73-10.19,38.75-9.55a9.51,9.51,0,0,1,7.3,3.37c.84,1.12-.28,3.09.56,4.49a6.1,6.1,0,0,0,5.34,2c2.24-.28,3.37-2.25,5.61-2.81a9.45,9.45,0,0,1,2.81,0,32.5,32.5,0,0,0,5.34,3.09c2.24.56,4.49.84,6.17,2.25,7.86,5.89,16.29,9.26,22.46,17.12,2.25,2.81,2,6.18,2.25,9.55" transform="translate(0)"/></g><g class="cp"><rect class="d" x="40.08" y="187.11" width="131.12" height="0.43"/><rect class="e" x="40.08" y="186.53" width="131.12" height="0.58"/><rect class="f" x="40.08" y="186.24" width="131.12" height="0.29"/><rect class="g" x="40.08" y="185.95" width="131.12" height="0.29"/><rect class="h" x="40.08" y="185.37" width="131.12" height="0.58"/><rect class="i" x="40.08" y="184.8" width="131.12" height="0.58"/><rect class="j" x="40.08" y="184.51" width="131.12" height="0.29"/><rect class="k" x="40.08" y="184.22" width="131.12" height="0.29"/><rect class="l" x="40.08" y="183.64" width="131.12" height="0.58"/><rect class="m" x="40.08" y="183.35" width="131.12" height="0.29"/><rect class="n" x="40.08" y="183.06" width="131.12" height="0.29"/><rect class="o" x="40.08" y="182.49" width="131.12" height="0.58"/><rect class="p" x="40.08" y="181.91" width="131.12" height="0.58"/><rect class="q" x="40.08" y="181.62" width="131.12" height="0.29"/><rect class="r" x="40.08" y="181.33" width="131.12" height="0.29"/><rect class="s" x="40.08" y="180.75" width="131.12" height="0.58"/><rect class="t" x="40.08" y="180.18" width="131.12" height="0.58"/><rect class="u" x="40.08" y="179.89" width="131.12" height="0.29"/><rect class="v" x="40.08" y="179.6" width="131.12" height="0.29"/><rect class="w" x="40.08" y="179.02" width="131.12" height="0.58"/><rect class="x" x="40.08" y="178.73" width="131.12" height="0.29"/><rect class="y" x="40.08" y="178.3" width="131.12" height="0.43"/><rect class="z" x="40.08" y="177.72" width="131.12" height="0.58"/><rect class="aa" x="40.08" y="177.14" width="131.12" height="0.58"/><rect class="ab" x="40.08" y="176.85" width="131.12" height="0.29"/><rect class="ac" x="40.08" y="176.57" width="131.12" height="0.29"/><rect class="ad" x="40.08" y="175.99" width="131.12" height="0.58"/><rect class="ae" x="40.08" y="175.41" width="131.12" height="0.58"/><rect class="af" x="40.08" y="175.12" width="131.12" height="0.29"/><rect class="ag" x="40.08" y="174.83" width="131.12" height="0.29"/><rect class="ah" x="40.08" y="174.26" width="131.12" height="0.58"/><rect class="ai" x="40.08" y="173.97" width="131.12" height="0.29"/><rect class="aj" x="40.08" y="173.68" width="131.12" height="0.29"/><rect class="ak" x="40.08" y="173.1" width="131.12" height="0.58"/><rect class="al" x="40.08" y="172.52" width="131.12" height="0.58"/><rect class="am" x="40.08" y="172.23" width="131.12" height="0.29"/><rect class="an" x="40.08" y="171.95" width="131.12" height="0.29"/><rect class="ao" x="40.08" y="171.37" width="131.12" height="0.58"/><rect class="ap" x="40.08" y="170.79" width="131.12" height="0.58"/><rect class="aq" x="40.08" y="170.5" width="131.12" height="0.29"/><rect class="ar" x="40.08" y="170.21" width="131.12" height="0.29"/><rect class="as" x="40.08" y="169.63" width="131.12" height="0.58"/><rect class="at" x="40.08" y="169.2" width="131.12" height="0.43"/><rect class="au" x="40.08" y="168.91" width="131.12" height="0.29"/><rect class="av" x="40.08" y="168.34" width="131.12" height="0.58"/><rect class="aw" x="40.08" y="167.76" width="131.12" height="0.58"/><rect class="ax" x="40.08" y="167.47" width="131.12" height="0.29"/><rect class="ay" x="40.08" y="167.18" width="131.12" height="0.29"/><rect class="az" x="40.08" y="166.6" width="131.12" height="0.58"/><rect class="ba" x="40.08" y="166.02" width="131.12" height="0.58"/><rect class="bb" x="40.08" y="165.74" width="131.12" height="0.29"/><rect class="bc" x="40.08" y="165.45" width="131.12" height="0.29"/><rect class="bd" x="40.08" y="164.87" width="131.12" height="0.58"/><rect class="be" x="40.08" y="164.58" width="131.12" height="0.29"/><rect class="bf" x="40.08" y="164.29" width="131.12" height="0.29"/><rect class="bg" x="40.08" y="163.71" width="131.12" height="0.58"/><rect class="bh" x="40.08" y="163.14" width="131.12" height="0.58"/><rect class="bi" x="40.08" y="162.85" width="131.12" height="0.29"/><rect class="bj" x="40.08" y="162.56" width="131.12" height="0.29"/><rect class="bk" x="40.08" y="161.98" width="131.12" height="0.58"/><rect class="bl" x="40.08" y="161.4" width="131.12" height="0.58"/><rect class="bm" x="40.08" y="161.12" width="131.12" height="0.29"/><rect class="bn" x="40.08" y="160.83" width="131.12" height="0.29"/><rect class="bo" x="40.08" y="160.25" width="131.12" height="0.58"/><rect class="bp" x="40.08" y="159.82" width="131.12" height="0.43"/><rect class="bq" x="40.08" y="159.53" width="131.12" height="0.29"/><rect class="br" x="40.08" y="158.95" width="131.12" height="0.58"/><rect class="bs" x="40.08" y="158.37" width="131.12" height="0.58"/><rect class="bt" x="40.08" y="158.08" width="131.12" height="0.29"/><rect class="bu" x="40.08" y="157.79" width="131.12" height="0.29"/><rect class="bv" x="40.08" y="157.22" width="131.12" height="0.58"/><rect class="bw" x="40.08" y="156.64" width="131.12" height="0.58"/><rect class="bx" x="40.08" y="156.35" width="131.12" height="0.29"/><rect class="by" x="40.08" y="156.06" width="131.12" height="0.29"/><rect class="bz" x="40.08" y="155.48" width="131.12" height="0.58"/><rect class="ca" x="40.08" y="155.2" width="131.12" height="0.29"/><rect class="cb" x="40.08" y="154.91" width="131.12" height="0.29"/><rect class="cc" x="40.08" y="154.33" width="131.12" height="0.58"/><rect class="cd" x="40.08" y="153.75" width="131.12" height="0.58"/><rect class="ce" x="40.08" y="153.46" width="131.12" height="0.29"/><rect class="cf" x="40.08" y="153.17" width="131.12" height="0.29"/><rect class="cg" x="40.08" y="152.6" width="131.12" height="0.58"/><rect class="ch" x="40.08" y="152.02" width="131.12" height="0.58"/><rect class="ci" x="40.08" y="151.73" width="131.12" height="0.29"/><rect class="cj" x="40.08" y="151.44" width="131.12" height="0.29"/><rect class="ck" x="40.08" y="147.83" width="131.12" height="3.61"/></g><g class="cl"><path class="cm" d="M40.08,184.42c3.09-4.21,6.18-9,11-11.51a61.87,61.87,0,0,0,7-4.78,21.06,21.06,0,0,0,4.21-5.61,7.63,7.63,0,0,1,3.65-3.65c2.81-1.69,6.68,1,8.7-.84,6-5.62,24.73-10.2,38.75-9.55a9.51,9.51,0,0,1,7.3,3.37c.84,1.12-.28,3.09.56,4.49a6.13,6.13,0,0,0,5.34,2c2.24-.28,3.37-2.25,5.61-2.81a9.45,9.45,0,0,1,2.81,0,34,34,0,0,0,5.34,3.09c2.24.56,4.49.84,6.17,2.24,7.86,5.9,16.29,9.27,22.46,17.13,2.25,2.81,2,6.18,2.25,9.55" transform="translate(0)"/><path class="cq" d="M122.18,89.13c5.81.88,10.91-.94,11.38-4.06s-3.85-6.37-9.66-7.25-10.91.93-11.38,4.06,3.85,6.36,9.66,7.25" transform="translate(0)"/><path class="cr" d="M122.18,89.13c5.81.88,10.91-.94,11.38-4.06s-3.85-6.37-9.66-7.25-10.91.93-11.38,4.06S116.37,88.24,122.18,89.13Z" transform="translate(0)"/><path class="cq" d="M123.08,134.84c5.81.88,10.9-.94,11.38-4.06s-3.85-6.37-9.67-7.25-10.9.93-11.38,4,3.86,6.37,9.67,7.26" transform="translate(0)"/><path class="cr" d="M123.08,134.84c5.81.88,10.9-.94,11.38-4.06s-3.85-6.37-9.67-7.25-10.9.93-11.38,4S117.27,134,123.08,134.84Z" transform="translate(0)"/><path class="cs" d="M90.73,123.19c-.8,6,4.63,7.95,8.8,11.72a7,7,0,0,0,7.15.79c1.39-.59,2.18-2.18,4-2.78,1-.6,2.38-1.59,2.38-2.78,1-6.95-5.16-11.12-9.53-15.48-4-3.18-11.12-1.2-12.9,4.16a4.31,4.31,0,0,0,.13,4.37" transform="translate(0)"/><path class="cm" d="M90.73,123.19c-.8,6,4.63,7.95,8.8,11.72a7,7,0,0,0,7.15.79c1.39-.59,2.18-2.18,4-2.78,1-.6,2.38-1.59,2.38-2.78,1-6.95-5.16-11.12-9.53-15.48-4-3.18-11.12-1.2-12.9,4.16a4.31,4.31,0,0,0,.13,4.37" transform="translate(0)"/></g><text class="ct" transform="translate(12.24 59.47)">(a)</text><text class="ct" transform="translate(12.24 100.03)">(b)</text><text class="ct" transform="translate(12.24 142.67)">(c)</text><text class="ct" transform="translate(12.24 188.42)">(d)</text><text class="ct" transform="translate(61.87 91.12)">Phagosome</text><text class="ct" transform="translate(125.12 98.04)">Lysosome</text><text/><text class="cu" transform="translate(108.22 144.44)">fuse</text><text class="cu" transform="translate(120.25 187.68)">&quot;so long,</text><g class="cl"><text class="cu" transform="translate(120.25 197.27)">bacterium!&quot;</text><text class="ct" transform="translate(0 6.88)">Bacterium Outside</text></g><text class="ct" transform="translate(2.22 16.48)"><tspan xml:space="preserve"> of Macrophage</tspan></text><text/><text class="ct" transform="translate(159.35 33.08)">Surface of</text><text class="ct" transform="translate(159.35 42.68)"><tspan xml:space="preserve">  Macrophage</tspan></text><text/><g class="cl"><text/><path class="cq" d="M100.93,168.89a52.13,52.13,0,0,0-13.19-.56c-2.25.14-5.48,2.3-6.32,4.26C80,176,81.7,181.86,85.35,183a13.51,13.51,0,0,0,3.93,1,29.76,29.76,0,0,0,10-.71,17.61,17.61,0,0,1,4.21-1.26c3.79.65,6,.51,8.71-.84,1.38-.7,2.94-.84,4.07-1.83a7,7,0,0,0,2.24-3.79,5.29,5.29,0,0,0,0-2.95c-.28-1.4-2.74-2.68-4.07-3.14-4.49-1.54-3.37-2.1-11-.14Z" transform="translate(0)"/><path class="cv" d="M100.93,168.89a52.13,52.13,0,0,0-13.19-.56c-2.25.14-5.48,2.3-6.32,4.26C80,176,81.7,181.86,85.35,183a13.51,13.51,0,0,0,3.93,1,29.76,29.76,0,0,0,10-.71,17.61,17.61,0,0,1,4.21-1.26c3.79.65,6,.51,8.71-.84,1.38-.7,2.94-.84,4.07-1.83a7,7,0,0,0,2.24-3.79,5.29,5.29,0,0,0,0-2.95c-.28-1.4-2.74-2.68-4.07-3.14-4.49-1.54-3.37-2.1-11-.14Z" transform="translate(0)"/><path class="cw" d="M96.05,13.85C96.05,15,94.18,16,93,16H78.42c-1.18,0-3-1-3-2.13s1.87-2.14,3-2.14H93c1.18,0,3,1,3,2.14" transform="translate(0)"/><path class="cx" d="M96.05,13.85C96.05,15,94.18,16,93,16H78.42c-1.18,0-3-1-3-2.13s1.87-2.14,3-2.14H93C94.18,11.71,96.05,12.67,96.05,13.85Z" transform="translate(0)"/><path class="cw" d="M104.13,80.32c-1.16.19-2.4-1.5-2.59-2.66L99.2,63.27c-.19-1.16.45-3.16,1.62-3.35s2.4,1.5,2.59,2.67L105.75,77c.19,1.17-.45,3.17-1.62,3.35" transform="translate(0)"/><path class="cx" d="M104.13,80.32c-1.16.19-2.4-1.5-2.59-2.66L99.2,63.27c-.19-1.16.45-3.16,1.62-3.35s2.4,1.5,2.59,2.67L105.75,77C105.94,78.14,105.3,80.14,104.13,80.32Z" transform="translate(0)"/><path class="cw" d="M110,128.88c-.57,1-2.66,1-3.7.39l-12.76-7.05c-1-.57-2.2-2.31-1.63-3.34s2.67-1,3.7-.4l12.76,7c1,.57,2.2,2.31,1.63,3.35" transform="translate(0)"/><path class="cx" d="M110,128.88c-.57,1-2.66,1-3.7.39l-12.76-7.05c-1-.57-2.2-2.31-1.63-3.34s2.67-1,3.7-.4l12.76,7C109.43,126.1,110.6,127.84,110,128.88Z" transform="translate(0)"/><path class="cw" d="M110.63,171.82c-.54.15.31.15,0,.54,1,.15-.23.31-.08.77.54.92-.46,1.31-1.07,1.61-1,.24-1.47-.3-2.16-.53a4.51,4.51,0,0,1,.54-3.24c1,.54,2.08.62,2.69-.38,1,0,.16.84.08,1.23" transform="translate(0)"/><path class="cy" d="M110.63,171.82c-.54.15.31.15,0,.54,1,.15-.23.31-.08.77.54.92-.46,1.31-1.07,1.61-1,.24-1.47-.3-2.16-.53a4.51,4.51,0,0,1,.54-3.24c1,.54,2.08.62,2.69-.38C111.55,170.59,110.71,171.43,110.63,171.82Z" transform="translate(0)"/><path class="cw" d="M97.21,180c.39,0,.16.38.23.61-.69.16-.61,1.08-1.15,1.47-.69.07-1.16.69-1.77,0,.3-1.47-1.93-.93-1.08-2.31.77-.85,1.92-1.78,3.39-1.16.38.31,0,1.16.38,1.39" transform="translate(0)"/><path class="cy" d="M97.21,180c.39,0,.16.38.23.61-.69.16-.61,1.08-1.15,1.47-.69.07-1.16.69-1.77,0,.3-1.47-1.93-.93-1.08-2.31.77-.85,1.92-1.78,3.39-1.16C97.21,179,96.83,179.8,97.21,180Z" transform="translate(0)"/><path class="cw" d="M91.57,173.32c.15.54,1.15,1.15.54,1.92-1.16-1.07-1.23,1.47-1.93-.07-2,.38-2-1.62-3.46-1.85-.23-.16-.31-.77,0-.92,1.23-.47,3.54-.08,4-.93,1.54-.08-.31,1.54.85,1.85" transform="translate(0)"/><path class="cy" d="M91.57,173.32c.15.54,1.15,1.15.54,1.92-1.16-1.07-1.23,1.47-1.93-.07-2,.38-2-1.62-3.46-1.85-.23-.16-.31-.77,0-.92,1.23-.47,3.54-.08,4-.93C92.26,171.39,90.41,173,91.57,173.32Z" transform="translate(0)"/><path class="cw" d="M104.75,171.38c.62,2.23-2.61,1.38-1.69,3.46a1.07,1.07,0,0,1-1-.92c.15-1.39-1.39-1.08-1.08-2.54,1.08-.16,1.39-1.62,2.62-1.08a8.09,8.09,0,0,0,1.15,1.08" transform="translate(0)"/><path class="cy" d="M104.75,171.38c.62,2.23-2.61,1.38-1.69,3.46a1.07,1.07,0,0,1-1-.92c.15-1.39-1.39-1.08-1.08-2.54,1.08-.16,1.39-1.62,2.62-1.08A8.09,8.09,0,0,0,104.75,171.38Z" transform="translate(0)"/><path class="cw" d="M98.83,175.92c-.08,1.16-1.62,1-2.54,1.31-.24-.31-.24-.85-.54-1-.7,0-.93-1-.54-1.46s1-.54,1.46-.77c1.23.07,1.54,1.23,2.16,1.92" transform="translate(0)"/><path class="cy" d="M98.83,175.92c-.08,1.16-1.62,1-2.54,1.31-.24-.31-.24-.85-.54-1-.7,0-.93-1-.54-1.46s1-.54,1.46-.77C97.9,174.07,98.21,175.23,98.83,175.92Z" transform="translate(0)"/><path class="cw" d="M116.28,173.27c-.08.77.08,1.54.69,1.69.08,1.39-1.61-.46-1.84.93-1.31-.08-2.7-.39-2.08-2.23-.08-.85.77-.77,1.31-1,.92,0,1.07.39,1.92.62" transform="translate(0)"/><path class="cy" d="M116.28,173.27c-.08.77.08,1.54.69,1.69.08,1.39-1.61-.46-1.84.93-1.31-.08-2.7-.39-2.08-2.23-.08-.85.77-.77,1.31-1C115.28,172.65,115.43,173,116.28,173.27Z" transform="translate(0)"/><path class="cw" d="M108.43,177.89c.7-.08.93-.31,1.62.07-.08.62,1,.39,1.16.16.23.61.38-.39.61.23-.85.46-.61,2.39-1.69,1.92-.46.16-1.31,1.08-1.54.08-.54,0-.85.62-1.54.69-1.16-.46-.46-2-.54-2.69.84.08,1.31-1.85,1.92-.46" transform="translate(0)"/><path class="cy" d="M108.43,177.89c.7-.08.93-.31,1.62.07-.08.62,1,.39,1.16.16.23.61.38-.39.61.23-.85.46-.61,2.39-1.69,1.92-.46.16-1.31,1.08-1.54.08-.54,0-.85.62-1.54.69-1.16-.46-.46-2-.54-2.69C107.35,178.43,107.82,176.5,108.43,177.89Z" transform="translate(0)"/><path class="cw" d="M89.75,177.81c-.7.77,1.31.31.53,1.08-.92.46-.46.92-1.07,1.69-1,.93-2.39-.31-3.55.39-.53,0-.61-.77-.3-1.08,1.69-.23,1.38-2.24,3.08-2.54.15-.54,2.38-.77,1.31.46" transform="translate(0)"/><path class="cy" d="M89.75,177.81c-.7.77,1.31.31.53,1.08-.92.46-.46.92-1.07,1.69-1,.93-2.39-.31-3.55.39-.53,0-.61-.77-.3-1.08,1.69-.23,1.38-2.24,3.08-2.54C88.59,176.81,90.82,176.58,89.75,177.81Z" transform="translate(0)"/></g></svg>